<svg xmlns="http://www.w3.org/2000/svg" xmlns:xlink="http://www.w3.org/1999/xlink" width="1366"
  zoomAndPan="magnify" viewBox="0 0 1024.5 576" height="768" preserveAspectRatio="xMidYMid meet"
  version="1.0">
  <defs>
    <clipPath id="a17a27a323">
      <path d="M 0 0.140625 L 758 0.140625 L 758 575.859375 L 0 575.859375 Z M 0 0.140625 "
        clip-rule="nonzero" />
    </clipPath>
  </defs>
  <g clip-path="url(#a17a27a323)">
    <path fill="#ffffff"
      d="M 378.867188 -0.445312 C 377.839844 -0.382812 376.878906 -0.316406 375.851562 -0.0625 C 306.894531 0.515625 242.300781 19.582031 186.761719 52.445312 C 185.414062 53.019531 184.128906 53.792969 182.910156 54.691406 C 126.472656 89.03125 79.796875 137.875 47.820312 195.898438 C 46.984375 197.054688 46.277344 198.273438 45.765625 199.621094 C 17.773438 251.804688 1.71875 311.304688 1.207031 374.402344 C 0.757812 376.582031 0.757812 378.765625 1.207031 380.882812 C 1.71875 450.332031 19.054688 511.308594 52.765625 567.214844 C 56.679688 573.699219 64.578125 576.652344 71.832031 574.339844 C 79.089844 572.03125 83.839844 565.03125 83.261719 557.460938 L 84.03125 567.535156 L 145.734375 531.785156 C 151 528.960938 154.273438 523.503906 154.273438 517.535156 C 154.339844 511.566406 151.128906 506.046875 145.925781 503.09375 C 140.726562 500.140625 134.371094 500.269531 129.234375 503.351562 L 74.402344 535.121094 C 51.03125 491.859375 36.90625 446.480469 34.464844 394.171875 L 99.699219 394.171875 C 105.605469 394.234375 111.128906 391.152344 114.144531 386.019531 C 117.097656 380.882812 117.097656 374.59375 114.144531 369.457031 C 111.128906 364.324219 105.605469 361.242188 99.699219 361.308594 L 34.464844 361.308594 C 36.710938 313.679688 48.785156 268.75 68.367188 228.121094 C 77.613281 233.128906 92.378906 241.085938 125.574219 259.121094 C 130.773438 262.074219 137.132812 262.011719 142.269531 258.929688 C 147.339844 255.847656 150.421875 250.199219 150.164062 244.296875 C 149.972656 238.328125 146.570312 232.933594 141.242188 230.175781 C 108.046875 212.203125 93.34375 204.242188 84.03125 199.238281 C 110.355469 155.910156 145.542969 118.683594 187.597656 90.632812 L 221.433594 146.925781 C 224.386719 151.996094 229.910156 155.140625 235.816406 155.078125 C 241.789062 154.949219 247.179688 151.738281 250.070312 146.539062 C 252.894531 141.339844 252.703125 134.988281 249.621094 129.980469 L 215.785156 73.6875 C 259.894531 50.003906 309.71875 35.691406 362.6875 33.1875 L 362.6875 98.402344 C 362.625 104.304688 365.707031 109.824219 370.84375 112.84375 C 375.980469 115.796875 382.269531 115.796875 387.40625 112.84375 C 392.542969 109.824219 395.625 104.304688 395.5625 98.402344 L 395.5625 33.1875 C 443.203125 35.433594 488.277344 47.246094 528.917969 66.820312 L 497.777344 124.269531 C 494.824219 129.464844 494.890625 135.820312 497.972656 140.957031 C 501.054688 146.027344 506.703125 149.109375 512.609375 148.851562 C 518.582031 148.660156 523.972656 145.257812 526.734375 139.929688 L 557.8125 82.546875 C 601.152344 108.800781 638.261719 144.230469 666.320312 186.269531 L 610.011719 220.097656 C 604.9375 223.050781 601.792969 228.570312 601.855469 234.476562 C 601.984375 240.445312 605.195312 245.835938 610.394531 248.722656 C 615.597656 251.546875 621.953125 251.355469 626.960938 248.273438 L 683.269531 214.449219 C 706.960938 258.542969 721.28125 308.351562 723.785156 361.308594 L 658.550781 361.308594 C 652.644531 361.242188 647.121094 364.324219 644.105469 369.457031 C 641.152344 374.59375 641.152344 380.882812 644.105469 386.019531 C 647.121094 391.152344 652.644531 394.234375 658.550781 394.171875 L 723.785156 394.171875 C 721.34375 446.480469 707.21875 491.859375 683.914062 535.121094 L 629.015625 503.351562 C 623.878906 500.269531 617.523438 500.140625 612.324219 503.09375 C 607.121094 506.046875 603.910156 511.566406 603.976562 517.535156 C 603.976562 523.503906 607.25 528.960938 612.515625 531.785156 L 674.21875 567.535156 L 674.988281 557.460938 C 674.410156 565.03125 679.160156 572.03125 686.417969 574.339844 C 693.671875 576.652344 701.570312 573.699219 705.484375 567.214844 C 739.195312 511.375 756.53125 450.398438 757.109375 381.074219 C 757.492188 378.894531 757.492188 376.648438 757.109375 374.527344 C 756.464844 305.464844 737.332031 240.765625 704.332031 185.246094 C 703.878906 184.023438 703.238281 182.933594 702.46875 181.84375 C 702.402344 181.84375 702.402344 181.84375 702.402344 181.84375 C 702.402344 181.777344 702.339844 181.777344 702.277344 181.714844 C 667.988281 125.359375 619.257812 78.761719 561.34375 46.796875 C 559.929688 45.703125 558.390625 44.933594 556.785156 44.355469 C 504.648438 16.5 445.320312 0.453125 382.269531 -0.0625 C 381.179688 -0.316406 380.023438 -0.445312 378.867188 -0.445312 Z M 569.113281 249.238281 C 565.964844 249.171875 562.882812 250.007812 560.1875 251.675781 L 410.457031 340.125 C 401.917969 332.9375 391.066406 328.445312 379.125 328.445312 C 352.09375 328.445312 329.816406 350.714844 329.816406 377.738281 C 329.816406 404.761719 352.09375 427.03125 379.125 427.03125 C 406.15625 427.03125 428.433594 404.761719 428.433594 377.738281 C 428.433594 374.527344 428.050781 371.320312 427.472656 368.238281 L 576.878906 279.917969 C 583.300781 276.261719 586.445312 268.75 584.648438 261.625 C 582.851562 254.5 576.496094 249.429688 569.113281 249.238281 Z M 379.125 361.308594 C 384.324219 361.308594 388.691406 363.679688 391.644531 367.277344 C 392.289062 369.007812 393.25 370.550781 394.46875 371.960938 C 395.113281 373.757812 395.5625 375.683594 395.5625 377.738281 C 395.5625 386.980469 388.371094 394.171875 379.125 394.171875 C 369.878906 394.171875 362.6875 386.980469 362.6875 377.738281 C 362.6875 368.496094 369.878906 361.308594 379.125 361.308594 Z M 280.503906 509.191406 C 274.597656 509.128906 269.074219 512.207031 266.058594 517.34375 C 263.105469 522.476562 263.105469 528.769531 266.058594 533.902344 C 269.074219 539.039062 274.597656 542.117188 280.503906 542.054688 L 477.746094 542.054688 C 483.652344 542.117188 489.175781 539.039062 492.191406 533.902344 C 495.144531 528.769531 495.144531 522.476562 492.191406 517.34375 C 489.175781 512.207031 483.652344 509.128906 477.746094 509.191406 Z M 280.503906 509.191406 "
      fill-opacity="1" fill-rule="nonzero" />
  </g>
</svg>
