<svg xmlns="http://www.w3.org/2000/svg" xmlns:xlink="http://www.w3.org/1999/xlink" width="200"
  height="200"
  zoomAndPan="magnify" viewBox="0 0 375 374.999991" preserveAspectRatio="xMidYMid meet"
  version="1.0">
  <defs>
    <g />
    <clipPath id="5dc07d54c4">
      <path
        d="M 4.898438 6.429688 L 367.042969 6.429688 L 367.042969 368.570312 L 4.898438 368.570312 Z M 4.898438 6.429688 "
        clip-rule="nonzero" />
    </clipPath>
    <clipPath id="d85e424cbb">
      <path
        d="M 185.972656 6.429688 C 85.96875 6.429688 4.898438 87.496094 4.898438 187.5 C 4.898438 287.503906 85.96875 368.570312 185.972656 368.570312 C 285.976562 368.570312 367.042969 287.503906 367.042969 187.5 C 367.042969 87.496094 285.976562 6.429688 185.972656 6.429688 "
        clip-rule="nonzero" />
    </clipPath>
    <clipPath id="7af7189a6c">
      <path d="M 132 36 L 262 36 L 262 233.796875 L 132 233.796875 Z M 132 36 " clip-rule="nonzero" />
    </clipPath>
    <clipPath id="e095191b72">
      <path d="M 129.148438 86 L 140 86 L 140 97 L 129.148438 97 Z M 129.148438 86 "
        clip-rule="nonzero" />
    </clipPath>
    <clipPath id="d163d021c8">
      <path d="M 250 50 L 266.398438 50 L 266.398438 67 L 250 67 Z M 250 50 " clip-rule="nonzero" />
    </clipPath>
    <clipPath id="e47f0195f6">
      <path d="M 192 32.046875 L 201 32.046875 L 201 41 L 192 41 Z M 192 32.046875 "
        clip-rule="nonzero" />
    </clipPath>
    <clipPath id="8f3bc29555">
      <path d="M 64 233 L 141 233 L 141 301 L 64 301 Z M 64 233 " clip-rule="nonzero" />
    </clipPath>
    <clipPath id="1b78d05b31">
      <path
        d="M 44.472656 256.96875 L 134.1875 215.113281 L 174.460938 301.429688 L 84.746094 343.289062 Z M 44.472656 256.96875 "
        clip-rule="nonzero" />
    </clipPath>
    <clipPath id="e21653345a">
      <path
        d="M 44.472656 256.96875 L 134.1875 215.113281 L 174.460938 301.429688 L 84.746094 343.289062 Z M 44.472656 256.96875 "
        clip-rule="nonzero" />
    </clipPath>
    <clipPath id="30ea5e4f94">
      <path
        d="M 44.472656 256.96875 L 134.1875 215.113281 L 174.460938 301.429688 L 84.746094 343.289062 Z M 44.472656 256.96875 "
        clip-rule="nonzero" />
    </clipPath>
    <clipPath id="2634016fcf">
      <path d="M 69 274 L 76 274 L 76 311 L 69 311 Z M 69 274 " clip-rule="nonzero" />
    </clipPath>
    <clipPath id="833d76909b">
      <path
        d="M 44.472656 256.96875 L 134.1875 215.113281 L 174.460938 301.429688 L 84.746094 343.289062 Z M 44.472656 256.96875 "
        clip-rule="nonzero" />
    </clipPath>
    <clipPath id="d9b122b57f">
      <path
        d="M 44.472656 256.96875 L 134.1875 215.113281 L 174.460938 301.429688 L 84.746094 343.289062 Z M 44.472656 256.96875 "
        clip-rule="nonzero" />
    </clipPath>
    <clipPath id="08f8710c0e">
      <path
        d="M 44.472656 256.96875 L 134.1875 215.113281 L 174.460938 301.429688 L 84.746094 343.289062 Z M 44.472656 256.96875 "
        clip-rule="nonzero" />
    </clipPath>
    <clipPath id="5e6e0cb6db">
      <path d="M 84 253 L 107 253 L 107 308 L 84 308 Z M 84 253 " clip-rule="nonzero" />
    </clipPath>
    <clipPath id="2270702d22">
      <path
        d="M 44.472656 256.96875 L 134.1875 215.113281 L 174.460938 301.429688 L 84.746094 343.289062 Z M 44.472656 256.96875 "
        clip-rule="nonzero" />
    </clipPath>
    <clipPath id="4a557779cb">
      <path
        d="M 44.472656 256.96875 L 134.1875 215.113281 L 174.460938 301.429688 L 84.746094 343.289062 Z M 44.472656 256.96875 "
        clip-rule="nonzero" />
    </clipPath>
    <clipPath id="51feecbda7">
      <path
        d="M 44.472656 256.96875 L 134.1875 215.113281 L 174.460938 301.429688 L 84.746094 343.289062 Z M 44.472656 256.96875 "
        clip-rule="nonzero" />
    </clipPath>
    <clipPath id="e6287c9a36">
      <path d="M 92 285 L 101 285 L 101 309 L 92 309 Z M 92 285 " clip-rule="nonzero" />
    </clipPath>
    <clipPath id="2e7d6b5c23">
      <path
        d="M 44.472656 256.96875 L 134.1875 215.113281 L 174.460938 301.429688 L 84.746094 343.289062 Z M 44.472656 256.96875 "
        clip-rule="nonzero" />
    </clipPath>
    <clipPath id="126c131934">
      <path
        d="M 44.472656 256.96875 L 134.1875 215.113281 L 174.460938 301.429688 L 84.746094 343.289062 Z M 44.472656 256.96875 "
        clip-rule="nonzero" />
    </clipPath>
    <clipPath id="63eeb6562d">
      <path
        d="M 44.472656 256.96875 L 134.1875 215.113281 L 174.460938 301.429688 L 84.746094 343.289062 Z M 44.472656 256.96875 "
        clip-rule="nonzero" />
    </clipPath>
    <clipPath id="95de2c641d">
      <path d="M 108 247 L 124 247 L 124 281 L 108 281 Z M 108 247 " clip-rule="nonzero" />
    </clipPath>
    <clipPath id="4f75b6a90f">
      <path
        d="M 44.472656 256.96875 L 134.1875 215.113281 L 174.460938 301.429688 L 84.746094 343.289062 Z M 44.472656 256.96875 "
        clip-rule="nonzero" />
    </clipPath>
    <clipPath id="e5a19e483e">
      <path
        d="M 44.472656 256.96875 L 134.1875 215.113281 L 174.460938 301.429688 L 84.746094 343.289062 Z M 44.472656 256.96875 "
        clip-rule="nonzero" />
    </clipPath>
    <clipPath id="e40b02a706">
      <path
        d="M 44.472656 256.96875 L 134.1875 215.113281 L 174.460938 301.429688 L 84.746094 343.289062 Z M 44.472656 256.96875 "
        clip-rule="nonzero" />
    </clipPath>
    <clipPath id="67390cfc64">
      <path d="M 114 266 L 120 266 L 120 277 L 114 277 Z M 114 266 " clip-rule="nonzero" />
    </clipPath>
    <clipPath id="69e5b2d833">
      <path
        d="M 44.472656 256.96875 L 134.1875 215.113281 L 174.460938 301.429688 L 84.746094 343.289062 Z M 44.472656 256.96875 "
        clip-rule="nonzero" />
    </clipPath>
    <clipPath id="0c73146f83">
      <path
        d="M 44.472656 256.96875 L 134.1875 215.113281 L 174.460938 301.429688 L 84.746094 343.289062 Z M 44.472656 256.96875 "
        clip-rule="nonzero" />
    </clipPath>
    <clipPath id="ec94e89f91">
      <path
        d="M 44.472656 256.96875 L 134.1875 215.113281 L 174.460938 301.429688 L 84.746094 343.289062 Z M 44.472656 256.96875 "
        clip-rule="nonzero" />
    </clipPath>
    <clipPath id="f52c1df12c">
      <path d="M 107 239 L 137 239 L 137 320 L 107 320 Z M 107 239 " clip-rule="nonzero" />
    </clipPath>
    <clipPath id="3696644892">
      <path
        d="M 44.472656 256.96875 L 134.1875 215.113281 L 174.460938 301.429688 L 84.746094 343.289062 Z M 44.472656 256.96875 "
        clip-rule="nonzero" />
    </clipPath>
    <clipPath id="1ebd2c72c1">
      <path
        d="M 44.472656 256.96875 L 134.1875 215.113281 L 174.460938 301.429688 L 84.746094 343.289062 Z M 44.472656 256.96875 "
        clip-rule="nonzero" />
    </clipPath>
    <clipPath id="d1d8aa40f0">
      <path
        d="M 44.472656 256.96875 L 134.1875 215.113281 L 174.460938 301.429688 L 84.746094 343.289062 Z M 44.472656 256.96875 "
        clip-rule="nonzero" />
    </clipPath>
    <clipPath id="e36695fd4c">
      <path d="M 121 291 L 130 291 L 130 313 L 121 313 Z M 121 291 " clip-rule="nonzero" />
    </clipPath>
    <clipPath id="5269a1d5a1">
      <path
        d="M 44.472656 256.96875 L 134.1875 215.113281 L 174.460938 301.429688 L 84.746094 343.289062 Z M 44.472656 256.96875 "
        clip-rule="nonzero" />
    </clipPath>
    <clipPath id="975e6da589">
      <path
        d="M 44.472656 256.96875 L 134.1875 215.113281 L 174.460938 301.429688 L 84.746094 343.289062 Z M 44.472656 256.96875 "
        clip-rule="nonzero" />
    </clipPath>
    <clipPath id="875224e276">
      <path
        d="M 44.472656 256.96875 L 134.1875 215.113281 L 174.460938 301.429688 L 84.746094 343.289062 Z M 44.472656 256.96875 "
        clip-rule="nonzero" />
    </clipPath>
    <clipPath id="207989aefb">
      <path d="M 131 237 L 157 237 L 157 310 L 131 310 Z M 131 237 " clip-rule="nonzero" />
    </clipPath>
    <clipPath id="c8aa94cfb5">
      <path
        d="M 44.472656 256.96875 L 134.1875 215.113281 L 174.460938 301.429688 L 84.746094 343.289062 Z M 44.472656 256.96875 "
        clip-rule="nonzero" />
    </clipPath>
    <clipPath id="eed0f78295">
      <path
        d="M 44.472656 256.96875 L 134.1875 215.113281 L 174.460938 301.429688 L 84.746094 343.289062 Z M 44.472656 256.96875 "
        clip-rule="nonzero" />
    </clipPath>
    <clipPath id="c59033402c">
      <path
        d="M 44.472656 256.96875 L 134.1875 215.113281 L 174.460938 301.429688 L 84.746094 343.289062 Z M 44.472656 256.96875 "
        clip-rule="nonzero" />
    </clipPath>
    <clipPath id="b2b0e2595b">
      <path d="M 152 286 L 175 286 L 175 302 L 152 302 Z M 152 286 " clip-rule="nonzero" />
    </clipPath>
    <clipPath id="8b747d8c6c">
      <path
        d="M 44.472656 256.96875 L 134.1875 215.113281 L 174.460938 301.429688 L 84.746094 343.289062 Z M 44.472656 256.96875 "
        clip-rule="nonzero" />
    </clipPath>
    <clipPath id="18abcfaa5b">
      <path
        d="M 44.472656 256.96875 L 134.1875 215.113281 L 174.460938 301.429688 L 84.746094 343.289062 Z M 44.472656 256.96875 "
        clip-rule="nonzero" />
    </clipPath>
    <clipPath id="6421fa39a9">
      <path
        d="M 44.472656 256.96875 L 134.1875 215.113281 L 174.460938 301.429688 L 84.746094 343.289062 Z M 44.472656 256.96875 "
        clip-rule="nonzero" />
    </clipPath>
    <clipPath id="e5ab8fb590">
      <path d="M 132 270 L 151 270 L 151 300 L 132 300 Z M 132 270 " clip-rule="nonzero" />
    </clipPath>
    <clipPath id="05033511d5">
      <path
        d="M 44.472656 256.96875 L 134.1875 215.113281 L 174.460938 301.429688 L 84.746094 343.289062 Z M 44.472656 256.96875 "
        clip-rule="nonzero" />
    </clipPath>
    <clipPath id="6244ea0ec9">
      <path
        d="M 44.472656 256.96875 L 134.1875 215.113281 L 174.460938 301.429688 L 84.746094 343.289062 Z M 44.472656 256.96875 "
        clip-rule="nonzero" />
    </clipPath>
    <clipPath id="f2b001d3dd">
      <path
        d="M 44.472656 256.96875 L 134.1875 215.113281 L 174.460938 301.429688 L 84.746094 343.289062 Z M 44.472656 256.96875 "
        clip-rule="nonzero" />
    </clipPath>
    <clipPath id="3562d3dbdb">
      <path
        d="M 176.152344 115.117188 L 182.804688 115.117188 L 182.804688 121.769531 L 176.152344 121.769531 Z M 176.152344 115.117188 "
        clip-rule="nonzero" />
    </clipPath>
    <clipPath id="c2f5ddd18d">
      <path
        d="M 179.476562 115.117188 C 177.640625 115.117188 176.152344 116.605469 176.152344 118.441406 C 176.152344 120.277344 177.640625 121.769531 179.476562 121.769531 C 181.3125 121.769531 182.804688 120.277344 182.804688 118.441406 C 182.804688 116.605469 181.3125 115.117188 179.476562 115.117188 "
        clip-rule="nonzero" />
    </clipPath>
    <clipPath id="23734ab688">
      <path
        d="M 181.492188 59.640625 L 190.453125 59.640625 L 190.453125 68.601562 L 181.492188 68.601562 Z M 181.492188 59.640625 "
        clip-rule="nonzero" />
    </clipPath>
    <clipPath id="ba8d225ed9">
      <path
        d="M 185.972656 59.640625 C 183.5 59.640625 181.492188 61.648438 181.492188 64.121094 C 181.492188 66.59375 183.5 68.601562 185.972656 68.601562 C 188.445312 68.601562 190.453125 66.59375 190.453125 64.121094 C 190.453125 61.648438 188.445312 59.640625 185.972656 59.640625 "
        clip-rule="nonzero" />
    </clipPath>
    <clipPath id="9e87f97cc3">
      <path
        d="M 197.652344 75.800781 L 206.609375 75.800781 L 206.609375 84.757812 L 197.652344 84.757812 Z M 197.652344 75.800781 "
        clip-rule="nonzero" />
    </clipPath>
    <clipPath id="a760f3b69a">
      <path
        d="M 202.132812 75.800781 C 199.660156 75.800781 197.652344 77.808594 197.652344 80.28125 C 197.652344 82.753906 199.660156 84.757812 202.132812 84.757812 C 204.605469 84.757812 206.609375 82.753906 206.609375 80.28125 C 206.609375 77.808594 204.605469 75.800781 202.132812 75.800781 "
        clip-rule="nonzero" />
    </clipPath>
    <clipPath id="fcaeffe456">
      <path
        d="M 232.847656 55.164062 L 241.804688 55.164062 L 241.804688 64.121094 L 232.847656 64.121094 Z M 232.847656 55.164062 "
        clip-rule="nonzero" />
    </clipPath>
    <clipPath id="d9cbc4bc85">
      <path
        d="M 237.328125 55.164062 C 234.851562 55.164062 232.847656 57.167969 232.847656 59.640625 C 232.847656 62.117188 234.851562 64.121094 237.328125 64.121094 C 239.800781 64.121094 241.804688 62.117188 241.804688 59.640625 C 241.804688 57.167969 239.800781 55.164062 237.328125 55.164062 "
        clip-rule="nonzero" />
    </clipPath>
    <clipPath id="5da77006f6">
      <path
        d="M 218.246094 103.945312 L 227.207031 103.945312 L 227.207031 112.90625 L 218.246094 112.90625 Z M 218.246094 103.945312 "
        clip-rule="nonzero" />
    </clipPath>
    <clipPath id="267abf85e6">
      <path
        d="M 222.726562 103.945312 C 220.253906 103.945312 218.246094 105.953125 218.246094 108.425781 C 218.246094 110.898438 220.253906 112.90625 222.726562 112.90625 C 225.199219 112.90625 227.207031 110.898438 227.207031 108.425781 C 227.207031 105.953125 225.199219 103.945312 222.726562 103.945312 "
        clip-rule="nonzero" />
    </clipPath>
  </defs>
  <rect x="-37.5" width="450" fill="#ffffff" y="-37.499999" height="449.999989" fill-opacity="1" />
  <rect x="-37.5" width="450" fill="#ffffff" y="-37.499999" height="449.999989" fill-opacity="1" />
  <rect x="-37.5" width="450" fill="#ffffff" y="-37.499999" height="449.999989" fill-opacity="1" />
  <g clip-path="url(#5dc07d54c4)">
    <g clip-path="url(#d85e424cbb)">
      <path fill="#ffffff"
        d="M 4.898438 6.429688 L 367.042969 6.429688 L 367.042969 368.570312 L 4.898438 368.570312 Z M 4.898438 6.429688 "
        fill-opacity="1" fill-rule="nonzero" />
    </g>
  </g>
  <g clip-path="url(#7af7189a6c)">
    <path fill="#b1d137"
      d="M 132.820312 233.796875 C 136.6875 220.136719 142.5 190.46875 138.636719 176.8125 C 136.175781 167.355469 136.527344 160.703125 139.335938 151.597656 C 140.742188 146.695312 144.253906 142.144531 145.308594 137.242188 C 146.363281 131.988281 144.957031 128.484375 147.066406 123.234375 C 149.523438 117.628906 150.578125 112.027344 148.117188 105.375 C 147.066406 102.921875 146.011719 99.421875 144.253906 96.96875 C 141.796875 93.46875 138.636719 92.417969 136.878906 88.214844 C 138.636719 93.117188 141.09375 97.667969 146.363281 98.71875 C 147.765625 93.46875 151.4375 71.308594 151.085938 76.210938 C 150.382812 79.710938 150.578125 89.265625 150.226562 93.117188 C 149.875 95.917969 148.117188 99.070312 148.46875 101.871094 C 148.820312 105.023438 150.929688 107.824219 151.628906 111.328125 C 151.980469 114.480469 151.277344 117.980469 152.683594 120.433594 C 153.035156 116.578125 156.546875 113.078125 159.007812 109.925781 C 163.921875 104.671875 164.625 103.972656 164.625 97.667969 C 164.976562 92.066406 166.734375 93.46875 169.191406 88.914062 C 170.597656 85.761719 169.191406 81.210938 169.542969 78.058594 C 170.597656 70.355469 172.355469 60.898438 177.972656 55.648438 C 184.296875 50.042969 195.535156 45.839844 196.589844 36.035156 C 198.347656 47.59375 181.292969 51.347656 176.726562 60.101562 C 174.269531 65.003906 170.597656 72.457031 169.894531 77.707031 C 169.542969 82.261719 172.003906 92.066406 167.789062 94.519531 C 172.003906 90.316406 177.625 85.0625 179.378906 79.460938 C 181.839844 71.40625 182.539062 71.753906 190.972656 70.355469 C 205.019531 67.902344 212.398438 53.894531 227.148438 53.894531 C 221.179688 55.296875 214.503906 60.199219 209.585938 63.699219 C 204.320312 67.203125 198.699219 68.953125 192.726562 70.355469 C 197.996094 71.054688 202.210938 76.308594 207.480469 76.308594 C 209.9375 66.503906 221.527344 65.101562 230.308594 64.402344 C 232.066406 64.402344 235.386719 62.203125 236.789062 61.152344 C 238.898438 60.101562 241.199219 58.796875 243.304688 57.398438 C 248.574219 53.894531 255.25 52.496094 261.570312 53.546875 C 257.355469 53.894531 252.085938 55.996094 248.222656 57.046875 C 242.605469 58.796875 239.792969 63.351562 234.527344 65.800781 C 226.097656 69.652344 214.152344 64.75 208.183594 75.257812 C 212.75 73.507812 227.851562 72.804688 231.011719 76.65625 C 225.394531 80.859375 213.449219 73.15625 207.832031 77.359375 C 210.289062 80.160156 209.585938 85.761719 211.34375 89.613281 C 213.449219 93.46875 214.855469 98.371094 217.316406 101.171875 C 220.828125 105.023438 224.691406 106.773438 226.796875 112.378906 C 228.203125 116.230469 227.851562 120.082031 229.257812 123.933594 C 224.144531 105.816406 221.410156 108.761719 215.4375 100.707031 C 212.277344 96.851562 209.585938 91.367188 208.183594 86.113281 C 207.128906 82.261719 209.585938 78.410156 207.128906 75.257812 C 201.507812 68.953125 188.863281 71.753906 183.59375 75.957031 C 179.378906 79.109375 177.976562 81.558594 175.867188 86.113281 C 174.109375 89.613281 170.246094 94.515625 169.546875 98.019531 C 169.546875 99.421875 169.195312 99.769531 169.195312 101.171875 C 174.460938 96.96875 187.109375 96.96875 192.726562 100.820312 C 185 101.519531 178.679688 97.320312 172.003906 102.222656 C 163.925781 108.175781 160.414062 115.179688 155.496094 123.582031 C 151.632812 130.238281 148.46875 134.789062 147.417969 143.894531 C 146.363281 151.949219 144.253906 160.703125 146.714844 168.757812 C 147.417969 172.257812 149.171875 175.410156 150.226562 178.914062 C 146.917969 167.914062 160.21875 144.847656 169.703125 148.347656 C 161.199219 150.882812 155.539062 160.695312 154.597656 164.808594 C 150.71875 181.796875 154.089844 177.289062 155.503906 169.824219 C 156.980469 162.042969 155 184.84375 155.847656 192.648438 C 156.242188 196.28125 156.632812 199.695312 155.144531 203.09375 C 153.664062 206.472656 151.136719 209.507812 149.4375 212.792969 C 147.628906 216.289062 153.757812 219.335938 151.789062 222.585938 C 148.730469 227.640625 168.515625 227.636719 167.59375 233.792969 "
      fill-opacity="1" fill-rule="nonzero" />
  </g>
  <path fill="#0b8d9c"
    d="M 234.578125 117.34375 C 234.578125 117.816406 234.53125 118.28125 234.4375 118.742188 C 234.347656 119.207031 234.210938 119.65625 234.03125 120.089844 C 233.847656 120.527344 233.625 120.941406 233.363281 121.332031 C 233.101562 121.722656 232.804688 122.085938 232.46875 122.417969 C 232.132812 122.753906 231.769531 123.050781 231.378906 123.3125 C 230.984375 123.574219 230.570312 123.796875 230.132812 123.976562 C 229.695312 124.15625 229.246094 124.292969 228.78125 124.382812 C 228.320312 124.476562 227.851562 124.523438 227.378906 124.523438 C 226.90625 124.523438 226.4375 124.476562 225.972656 124.382812 C 225.507812 124.292969 225.058594 124.15625 224.621094 123.976562 C 224.183594 123.796875 223.769531 123.574219 223.378906 123.3125 C 222.984375 123.050781 222.621094 122.753906 222.285156 122.417969 C 221.953125 122.085938 221.652344 121.722656 221.390625 121.332031 C 221.128906 120.941406 220.90625 120.527344 220.726562 120.089844 C 220.542969 119.65625 220.40625 119.207031 220.316406 118.742188 C 220.222656 118.28125 220.175781 117.816406 220.175781 117.34375 C 220.175781 116.871094 220.222656 116.40625 220.316406 115.941406 C 220.40625 115.480469 220.542969 115.03125 220.726562 114.597656 C 220.90625 114.160156 221.128906 113.746094 221.390625 113.355469 C 221.652344 112.964844 221.953125 112.601562 222.285156 112.265625 C 222.621094 111.933594 222.984375 111.636719 223.378906 111.375 C 223.769531 111.113281 224.183594 110.890625 224.621094 110.710938 C 225.058594 110.53125 225.507812 110.394531 225.972656 110.304688 C 226.4375 110.210938 226.90625 110.164062 227.378906 110.164062 C 227.851562 110.164062 228.320312 110.210938 228.78125 110.304688 C 229.246094 110.394531 229.695312 110.53125 230.132812 110.710938 C 230.570312 110.890625 230.984375 111.113281 231.378906 111.375 C 231.769531 111.636719 232.132812 111.933594 232.46875 112.265625 C 232.804688 112.601562 233.101562 112.964844 233.363281 113.355469 C 233.625 113.746094 233.847656 114.160156 234.03125 114.597656 C 234.210938 115.03125 234.347656 115.480469 234.4375 115.941406 C 234.53125 116.40625 234.578125 116.871094 234.578125 117.34375 Z M 234.578125 117.34375 "
    fill-opacity="0.498" fill-rule="nonzero" />
  <path fill="#0b8d9c"
    d="M 238.683594 81.519531 C 238.683594 82.09375 238.628906 82.664062 238.515625 83.230469 C 238.402344 83.796875 238.234375 84.347656 238.015625 84.878906 C 237.792969 85.410156 237.519531 85.917969 237.199219 86.398438 C 236.878906 86.875 236.511719 87.320312 236.105469 87.726562 C 235.695312 88.136719 235.25 88.5 234.769531 88.820312 C 234.289062 89.140625 233.78125 89.410156 233.246094 89.632812 C 232.710938 89.851562 232.160156 90.019531 231.59375 90.132812 C 231.027344 90.246094 230.453125 90.300781 229.875 90.300781 C 229.296875 90.300781 228.722656 90.246094 228.15625 90.132812 C 227.589844 90.019531 227.039062 89.851562 226.503906 89.632812 C 225.96875 89.410156 225.460938 89.140625 224.980469 88.820312 C 224.5 88.5 224.054688 88.136719 223.648438 87.726562 C 223.238281 87.320312 222.871094 86.875 222.550781 86.398438 C 222.230469 85.917969 221.957031 85.410156 221.738281 84.878906 C 221.515625 84.347656 221.347656 83.796875 221.234375 83.230469 C 221.125 82.664062 221.066406 82.09375 221.066406 81.519531 C 221.066406 80.941406 221.125 80.371094 221.234375 79.804688 C 221.347656 79.238281 221.515625 78.691406 221.738281 78.15625 C 221.957031 77.625 222.230469 77.117188 222.550781 76.640625 C 222.871094 76.160156 223.238281 75.714844 223.648438 75.308594 C 224.054688 74.902344 224.5 74.535156 224.980469 74.214844 C 225.460938 73.894531 225.96875 73.625 226.503906 73.40625 C 227.039062 73.183594 227.589844 73.015625 228.15625 72.90625 C 228.722656 72.792969 229.296875 72.734375 229.875 72.734375 C 230.453125 72.734375 231.027344 72.792969 231.59375 72.90625 C 232.160156 73.015625 232.710938 73.183594 233.246094 73.40625 C 233.78125 73.625 234.289062 73.894531 234.769531 74.214844 C 235.25 74.535156 235.695312 74.902344 236.105469 75.308594 C 236.511719 75.714844 236.878906 76.160156 237.199219 76.640625 C 237.519531 77.117188 237.792969 77.625 238.015625 78.15625 C 238.234375 78.691406 238.402344 79.238281 238.515625 79.804688 C 238.628906 80.371094 238.683594 80.941406 238.683594 81.519531 Z M 238.683594 81.519531 "
    fill-opacity="0.498" fill-rule="nonzero" />
  <path fill="#0b8d9c"
    d="M 182.429688 60.675781 C 182.429688 61.25 182.371094 61.824219 182.257812 62.386719 C 182.144531 62.953125 181.980469 63.503906 181.757812 64.035156 C 181.535156 64.570312 181.265625 65.074219 180.945312 65.554688 C 180.621094 66.035156 180.257812 66.476562 179.847656 66.886719 C 179.4375 67.292969 178.996094 67.65625 178.511719 67.976562 C 178.03125 68.296875 177.523438 68.566406 176.992188 68.789062 C 176.457031 69.007812 175.90625 69.175781 175.339844 69.289062 C 174.769531 69.402344 174.199219 69.457031 173.621094 69.457031 C 173.042969 69.457031 172.46875 69.402344 171.902344 69.289062 C 171.332031 69.175781 170.78125 69.007812 170.25 68.789062 C 169.714844 68.566406 169.207031 68.296875 168.726562 67.976562 C 168.246094 67.65625 167.800781 67.292969 167.390625 66.886719 C 166.980469 66.476562 166.617188 66.035156 166.296875 65.554688 C 165.972656 65.074219 165.703125 64.570312 165.480469 64.035156 C 165.261719 63.503906 165.09375 62.953125 164.980469 62.386719 C 164.867188 61.824219 164.8125 61.25 164.8125 60.675781 C 164.8125 60.097656 164.867188 59.527344 164.980469 58.960938 C 165.09375 58.394531 165.261719 57.847656 165.480469 57.3125 C 165.703125 56.78125 165.972656 56.273438 166.296875 55.796875 C 166.617188 55.316406 166.980469 54.871094 167.390625 54.464844 C 167.800781 54.058594 168.246094 53.691406 168.726562 53.371094 C 169.207031 53.050781 169.714844 52.78125 170.25 52.5625 C 170.78125 52.339844 171.332031 52.175781 171.902344 52.0625 C 172.46875 51.949219 173.042969 51.894531 173.621094 51.894531 C 174.199219 51.894531 174.769531 51.949219 175.339844 52.0625 C 175.90625 52.175781 176.457031 52.339844 176.992188 52.5625 C 177.523438 52.78125 178.03125 53.050781 178.511719 53.371094 C 178.996094 53.691406 179.4375 54.058594 179.847656 54.464844 C 180.257812 54.871094 180.621094 55.316406 180.945312 55.796875 C 181.265625 56.273438 181.535156 56.78125 181.757812 57.3125 C 181.980469 57.847656 182.144531 58.394531 182.257812 58.960938 C 182.371094 59.527344 182.429688 60.097656 182.429688 60.675781 Z M 182.429688 60.675781 "
    fill-opacity="0.498" fill-rule="nonzero" />
  <path fill="#0b8d9c"
    d="M 208.78125 106.226562 C 208.78125 107.03125 208.699219 107.832031 208.542969 108.621094 C 208.386719 109.410156 208.152344 110.175781 207.84375 110.921875 C 207.535156 111.664062 207.15625 112.371094 206.707031 113.042969 C 206.257812 113.710938 205.746094 114.332031 205.175781 114.902344 C 204.605469 115.472656 203.984375 115.980469 203.3125 116.425781 C 202.640625 116.875 201.929688 117.253906 201.183594 117.5625 C 200.4375 117.867188 199.667969 118.101562 198.875 118.257812 C 198.082031 118.414062 197.285156 118.496094 196.476562 118.496094 C 195.667969 118.496094 194.867188 118.414062 194.074219 118.257812 C 193.28125 118.101562 192.511719 117.867188 191.765625 117.5625 C 191.019531 117.253906 190.3125 116.875 189.640625 116.425781 C 188.96875 115.980469 188.347656 115.472656 187.777344 114.902344 C 187.203125 114.332031 186.695312 113.710938 186.246094 113.042969 C 185.796875 112.371094 185.417969 111.664062 185.109375 110.921875 C 184.800781 110.175781 184.566406 109.410156 184.40625 108.621094 C 184.25 107.832031 184.171875 107.03125 184.171875 106.226562 C 184.171875 105.421875 184.25 104.625 184.40625 103.835938 C 184.566406 103.042969 184.800781 102.277344 185.109375 101.53125 C 185.417969 100.789062 185.796875 100.082031 186.246094 99.410156 C 186.695312 98.742188 187.203125 98.121094 187.777344 97.554688 C 188.347656 96.984375 188.96875 96.476562 189.640625 96.027344 C 190.3125 95.578125 191.019531 95.203125 191.765625 94.894531 C 192.511719 94.585938 193.28125 94.351562 194.074219 94.195312 C 194.867188 94.039062 195.667969 93.960938 196.476562 93.960938 C 197.285156 93.960938 198.082031 94.039062 198.875 94.195312 C 199.667969 94.351562 200.4375 94.585938 201.183594 94.894531 C 201.929688 95.203125 202.640625 95.578125 203.3125 96.027344 C 203.984375 96.476562 204.605469 96.984375 205.175781 97.554688 C 205.746094 98.121094 206.257812 98.742188 206.707031 99.410156 C 207.15625 100.082031 207.535156 100.789062 207.84375 101.53125 C 208.152344 102.277344 208.386719 103.042969 208.542969 103.835938 C 208.699219 104.625 208.78125 105.421875 208.78125 106.226562 Z M 208.78125 106.226562 "
    fill-opacity="0.749" fill-rule="nonzero" />
  <path fill="#0b8d9c"
    d="M 178.722656 151.464844 C 178.722656 151.925781 178.679688 152.386719 178.585938 152.84375 C 178.496094 153.296875 178.363281 153.738281 178.183594 154.167969 C 178.007812 154.597656 177.789062 155.003906 177.53125 155.390625 C 177.269531 155.773438 176.976562 156.132812 176.648438 156.460938 C 176.320312 156.789062 175.960938 157.082031 175.574219 157.335938 C 175.1875 157.59375 174.777344 157.8125 174.347656 157.992188 C 173.917969 158.167969 173.476562 158.300781 173.019531 158.394531 C 172.5625 158.484375 172.101562 158.527344 171.636719 158.527344 C 171.171875 158.527344 170.710938 158.484375 170.253906 158.394531 C 169.800781 158.300781 169.355469 158.167969 168.925781 157.992188 C 168.496094 157.8125 168.085938 157.59375 167.699219 157.335938 C 167.3125 157.082031 166.957031 156.789062 166.628906 156.460938 C 166.296875 156.132812 166.003906 155.773438 165.746094 155.390625 C 165.488281 155.003906 165.269531 154.597656 165.089844 154.167969 C 164.914062 153.738281 164.777344 153.296875 164.6875 152.84375 C 164.597656 152.386719 164.550781 151.925781 164.550781 151.464844 C 164.550781 151 164.597656 150.539062 164.6875 150.085938 C 164.777344 149.628906 164.914062 149.1875 165.089844 148.761719 C 165.269531 148.332031 165.488281 147.925781 165.746094 147.539062 C 166.003906 147.152344 166.296875 146.796875 166.628906 146.46875 C 166.957031 146.140625 167.3125 145.847656 167.699219 145.589844 C 168.085938 145.332031 168.496094 145.113281 168.925781 144.9375 C 169.355469 144.757812 169.800781 144.625 170.253906 144.535156 C 170.710938 144.445312 171.171875 144.398438 171.636719 144.398438 C 172.101562 144.398438 172.5625 144.445312 173.019531 144.535156 C 173.476562 144.625 173.917969 144.757812 174.347656 144.9375 C 174.777344 145.113281 175.1875 145.332031 175.574219 145.589844 C 175.960938 145.847656 176.320312 146.140625 176.648438 146.46875 C 176.976562 146.796875 177.269531 147.152344 177.53125 147.539062 C 177.789062 147.925781 178.007812 148.332031 178.183594 148.761719 C 178.363281 149.1875 178.496094 149.628906 178.585938 150.085938 C 178.679688 150.539062 178.722656 151 178.722656 151.464844 Z M 178.722656 151.464844 "
    fill-opacity="0.498" fill-rule="nonzero" />
  <path fill="#0b8d9c"
    d="M 230.144531 52.605469 C 230.144531 53 230.105469 53.390625 230.03125 53.78125 C 229.953125 54.167969 229.835938 54.542969 229.683594 54.910156 C 229.535156 55.277344 229.347656 55.625 229.125 55.953125 C 228.90625 56.28125 228.65625 56.585938 228.375 56.867188 C 228.09375 57.144531 227.789062 57.394531 227.460938 57.613281 C 227.128906 57.835938 226.78125 58.019531 226.414062 58.171875 C 226.046875 58.324219 225.667969 58.4375 225.28125 58.515625 C 224.890625 58.589844 224.5 58.628906 224.101562 58.628906 C 223.703125 58.628906 223.3125 58.589844 222.921875 58.515625 C 222.53125 58.4375 222.15625 58.324219 221.789062 58.171875 C 221.421875 58.019531 221.074219 57.835938 220.742188 57.613281 C 220.414062 57.394531 220.109375 57.144531 219.828125 56.867188 C 219.546875 56.585938 219.296875 56.28125 219.074219 55.953125 C 218.855469 55.625 218.667969 55.277344 218.515625 54.910156 C 218.367188 54.542969 218.25 54.167969 218.171875 53.78125 C 218.097656 53.390625 218.058594 53 218.058594 52.605469 C 218.058594 52.207031 218.097656 51.816406 218.171875 51.429688 C 218.25 51.039062 218.367188 50.664062 218.515625 50.296875 C 218.667969 49.933594 218.855469 49.585938 219.074219 49.257812 C 219.296875 48.925781 219.546875 48.625 219.828125 48.34375 C 220.109375 48.0625 220.414062 47.8125 220.742188 47.59375 C 221.074219 47.375 221.421875 47.1875 221.789062 47.039062 C 222.15625 46.886719 222.53125 46.769531 222.921875 46.695312 C 223.3125 46.617188 223.703125 46.578125 224.101562 46.578125 C 224.5 46.578125 224.890625 46.617188 225.28125 46.695312 C 225.667969 46.769531 226.046875 46.886719 226.414062 47.039062 C 226.78125 47.1875 227.128906 47.375 227.460938 47.59375 C 227.789062 47.8125 228.09375 48.0625 228.375 48.34375 C 228.65625 48.625 228.90625 48.925781 229.125 49.257812 C 229.347656 49.585938 229.535156 49.933594 229.683594 50.296875 C 229.835938 50.664062 229.953125 51.039062 230.03125 51.429688 C 230.105469 51.816406 230.144531 52.207031 230.144531 52.605469 Z M 230.144531 52.605469 "
    fill-opacity="0.498" fill-rule="nonzero" />
  <path fill="#0b8d9c"
    d="M 154.644531 79.261719 C 154.644531 79.597656 154.609375 79.933594 154.542969 80.265625 C 154.480469 80.59375 154.378906 80.917969 154.25 81.230469 C 154.121094 81.539062 153.960938 81.835938 153.773438 82.117188 C 153.585938 82.398438 153.371094 82.660156 153.132812 82.898438 C 152.894531 83.136719 152.632812 83.347656 152.351562 83.535156 C 152.070312 83.722656 151.773438 83.882812 151.460938 84.011719 C 151.144531 84.140625 150.824219 84.238281 150.492188 84.304688 C 150.160156 84.371094 149.824219 84.402344 149.484375 84.402344 C 149.144531 84.402344 148.8125 84.371094 148.476562 84.304688 C 148.144531 84.238281 147.824219 84.140625 147.511719 84.011719 C 147.199219 83.882812 146.898438 83.722656 146.617188 83.535156 C 146.335938 83.347656 146.078125 83.136719 145.835938 82.898438 C 145.597656 82.660156 145.382812 82.398438 145.195312 82.117188 C 145.007812 81.835938 144.847656 81.539062 144.71875 81.230469 C 144.589844 80.917969 144.492188 80.59375 144.425781 80.265625 C 144.359375 79.933594 144.324219 79.597656 144.324219 79.261719 C 144.324219 78.921875 144.359375 78.589844 144.425781 78.257812 C 144.492188 77.925781 144.589844 77.605469 144.71875 77.292969 C 144.847656 76.980469 145.007812 76.683594 145.195312 76.402344 C 145.382812 76.121094 145.597656 75.863281 145.835938 75.625 C 146.078125 75.382812 146.335938 75.171875 146.617188 74.984375 C 146.898438 74.796875 147.199219 74.636719 147.511719 74.507812 C 147.824219 74.378906 148.144531 74.28125 148.476562 74.214844 C 148.8125 74.148438 149.144531 74.117188 149.484375 74.117188 C 149.824219 74.117188 150.160156 74.148438 150.492188 74.214844 C 150.824219 74.28125 151.144531 74.378906 151.460938 74.507812 C 151.773438 74.636719 152.070312 74.796875 152.351562 74.984375 C 152.632812 75.171875 152.894531 75.382812 153.132812 75.625 C 153.371094 75.863281 153.585938 76.121094 153.773438 76.402344 C 153.960938 76.683594 154.121094 76.980469 154.25 77.292969 C 154.378906 77.605469 154.480469 77.925781 154.542969 78.257812 C 154.609375 78.589844 154.644531 78.921875 154.644531 79.261719 Z M 154.644531 79.261719 "
    fill-opacity="0.498" fill-rule="nonzero" />
  <g clip-path="url(#e095191b72)">
    <path fill="#0b8d9c"
      d="M 139.75 91.457031 C 139.75 91.796875 139.714844 92.128906 139.648438 92.460938 C 139.582031 92.792969 139.484375 93.113281 139.355469 93.425781 C 139.226562 93.738281 139.066406 94.035156 138.878906 94.316406 C 138.691406 94.597656 138.476562 94.855469 138.238281 95.09375 C 137.996094 95.332031 137.738281 95.546875 137.457031 95.734375 C 137.171875 95.921875 136.875 96.082031 136.5625 96.210938 C 136.25 96.339844 135.925781 96.4375 135.59375 96.503906 C 135.261719 96.570312 134.925781 96.601562 134.589844 96.601562 C 134.25 96.601562 133.914062 96.570312 133.582031 96.503906 C 133.25 96.4375 132.925781 96.339844 132.613281 96.210938 C 132.300781 96.082031 132.003906 95.921875 131.722656 95.734375 C 131.441406 95.546875 131.179688 95.332031 130.941406 95.09375 C 130.699219 94.855469 130.488281 94.597656 130.296875 94.316406 C 130.109375 94.035156 129.953125 93.738281 129.820312 93.425781 C 129.691406 93.113281 129.59375 92.792969 129.527344 92.460938 C 129.460938 92.128906 129.429688 91.796875 129.429688 91.457031 C 129.429688 91.121094 129.460938 90.785156 129.527344 90.453125 C 129.59375 90.121094 129.691406 89.800781 129.820312 89.488281 C 129.953125 89.175781 130.109375 88.878906 130.296875 88.601562 C 130.488281 88.320312 130.699219 88.058594 130.941406 87.820312 C 131.179688 87.582031 131.441406 87.367188 131.722656 87.179688 C 132.003906 86.992188 132.300781 86.835938 132.613281 86.707031 C 132.925781 86.574219 133.25 86.476562 133.582031 86.414062 C 133.914062 86.347656 134.25 86.3125 134.589844 86.3125 C 134.925781 86.3125 135.261719 86.347656 135.59375 86.414062 C 135.925781 86.476562 136.25 86.574219 136.5625 86.707031 C 136.875 86.835938 137.171875 86.992188 137.457031 87.179688 C 137.738281 87.367188 137.996094 87.582031 138.238281 87.820312 C 138.476562 88.058594 138.691406 88.320312 138.878906 88.601562 C 139.066406 88.878906 139.226562 89.175781 139.355469 89.488281 C 139.484375 89.800781 139.582031 90.121094 139.648438 90.453125 C 139.714844 90.785156 139.75 91.121094 139.75 91.457031 Z M 139.75 91.457031 "
      fill-opacity="0.749" fill-rule="nonzero" />
  </g>
  <g clip-path="url(#d163d021c8)">
    <path fill="#0b8d9c"
      d="M 266.121094 58.273438 C 266.121094 58.792969 266.070312 59.304688 265.96875 59.816406 C 265.867188 60.324219 265.71875 60.820312 265.519531 61.300781 C 265.320312 61.777344 265.074219 62.234375 264.785156 62.667969 C 264.496094 63.097656 264.167969 63.496094 263.796875 63.863281 C 263.429688 64.230469 263.027344 64.558594 262.597656 64.847656 C 262.164062 65.136719 261.707031 65.378906 261.222656 65.578125 C 260.742188 65.777344 260.246094 65.929688 259.734375 66.03125 C 259.226562 66.128906 258.710938 66.179688 258.1875 66.179688 C 257.667969 66.179688 257.152344 66.128906 256.640625 66.03125 C 256.128906 65.929688 255.632812 65.777344 255.152344 65.578125 C 254.671875 65.378906 254.214844 65.136719 253.78125 64.847656 C 253.347656 64.558594 252.949219 64.230469 252.578125 63.863281 C 252.210938 63.496094 251.882812 63.097656 251.59375 62.667969 C 251.304688 62.234375 251.058594 61.777344 250.859375 61.300781 C 250.660156 60.820312 250.511719 60.324219 250.410156 59.816406 C 250.304688 59.304688 250.253906 58.792969 250.253906 58.273438 C 250.253906 57.753906 250.304688 57.238281 250.410156 56.730469 C 250.511719 56.21875 250.660156 55.726562 250.859375 55.246094 C 251.058594 54.765625 251.304688 54.308594 251.59375 53.878906 C 251.882812 53.445312 252.210938 53.046875 252.578125 52.679688 C 252.949219 52.3125 253.347656 51.984375 253.78125 51.695312 C 254.214844 51.40625 254.671875 51.164062 255.152344 50.964844 C 255.632812 50.765625 256.128906 50.617188 256.640625 50.515625 C 257.152344 50.414062 257.667969 50.363281 258.1875 50.363281 C 258.710938 50.363281 259.226562 50.414062 259.734375 50.515625 C 260.246094 50.617188 260.742188 50.765625 261.222656 50.964844 C 261.707031 51.164062 262.164062 51.40625 262.597656 51.695312 C 263.027344 51.984375 263.429688 52.3125 263.796875 52.679688 C 264.167969 53.046875 264.496094 53.445312 264.785156 53.878906 C 265.074219 54.308594 265.320312 54.765625 265.519531 55.246094 C 265.71875 55.726562 265.867188 56.21875 265.96875 56.730469 C 266.070312 57.238281 266.121094 57.753906 266.121094 58.273438 Z M 266.121094 58.273438 "
      fill-opacity="0.498" fill-rule="nonzero" />
  </g>
  <path fill="#0b8d9c"
    d="M 249.238281 56.667969 C 249.238281 56.941406 249.210938 57.210938 249.15625 57.480469 C 249.105469 57.746094 249.027344 58.007812 248.921875 58.257812 C 248.816406 58.511719 248.6875 58.75 248.535156 58.976562 C 248.382812 59.203125 248.210938 59.414062 248.015625 59.605469 C 247.824219 59.800781 247.613281 59.972656 247.386719 60.125 C 247.160156 60.273438 246.917969 60.402344 246.664062 60.507812 C 246.414062 60.613281 246.152344 60.691406 245.882812 60.746094 C 245.613281 60.796875 245.34375 60.824219 245.070312 60.824219 C 244.796875 60.824219 244.527344 60.796875 244.257812 60.746094 C 243.988281 60.691406 243.726562 60.613281 243.476562 60.507812 C 243.222656 60.402344 242.984375 60.273438 242.753906 60.125 C 242.527344 59.972656 242.316406 59.800781 242.125 59.605469 C 241.929688 59.414062 241.757812 59.203125 241.605469 58.976562 C 241.453125 58.75 241.324219 58.511719 241.21875 58.257812 C 241.117188 58.007812 241.035156 57.746094 240.984375 57.480469 C 240.929688 57.210938 240.902344 56.941406 240.902344 56.667969 C 240.902344 56.394531 240.929688 56.125 240.984375 55.859375 C 241.035156 55.589844 241.117188 55.332031 241.21875 55.078125 C 241.324219 54.828125 241.453125 54.585938 241.605469 54.359375 C 241.757812 54.132812 241.929688 53.921875 242.125 53.730469 C 242.316406 53.539062 242.527344 53.367188 242.753906 53.214844 C 242.984375 53.0625 243.222656 52.933594 243.476562 52.828125 C 243.726562 52.726562 243.988281 52.648438 244.257812 52.59375 C 244.527344 52.539062 244.796875 52.515625 245.070312 52.515625 C 245.34375 52.515625 245.613281 52.539062 245.882812 52.59375 C 246.152344 52.648438 246.414062 52.726562 246.664062 52.828125 C 246.917969 52.933594 247.160156 53.0625 247.386719 53.214844 C 247.613281 53.367188 247.824219 53.539062 248.015625 53.730469 C 248.210938 53.921875 248.382812 54.132812 248.535156 54.359375 C 248.6875 54.585938 248.816406 54.828125 248.921875 55.078125 C 249.027344 55.332031 249.105469 55.589844 249.15625 55.859375 C 249.210938 56.125 249.238281 56.394531 249.238281 56.667969 Z M 249.238281 56.667969 "
    fill-opacity="0.498" fill-rule="nonzero" />
  <path fill="#0b8d9c"
    d="M 250.914062 72.816406 C 248.511719 75.039062 244.757812 74.902344 242.527344 72.511719 C 240.300781 70.117188 240.4375 66.375 242.835938 64.152344 C 245.234375 61.929688 248.988281 62.066406 251.21875 64.457031 C 253.449219 66.851562 253.3125 70.59375 250.914062 72.816406 Z M 250.914062 72.816406 "
    fill-opacity="0.749" fill-rule="nonzero" />
  <g clip-path="url(#e47f0195f6)">
    <path fill="#0b8d9c"
      d="M 200.550781 36.199219 C 200.550781 36.472656 200.523438 36.742188 200.472656 37.011719 C 200.417969 37.277344 200.339844 37.539062 200.234375 37.789062 C 200.128906 38.042969 200 38.28125 199.847656 38.507812 C 199.699219 38.734375 199.523438 38.945312 199.332031 39.136719 C 199.136719 39.332031 198.925781 39.503906 198.699219 39.65625 C 198.472656 39.808594 198.230469 39.933594 197.980469 40.039062 C 197.726562 40.144531 197.464844 40.222656 197.199219 40.277344 C 196.929688 40.328125 196.65625 40.355469 196.382812 40.355469 C 196.109375 40.355469 195.839844 40.328125 195.570312 40.277344 C 195.304688 40.222656 195.042969 40.144531 194.789062 40.039062 C 194.535156 39.933594 194.296875 39.808594 194.070312 39.65625 C 193.839844 39.503906 193.628906 39.332031 193.4375 39.136719 C 193.242188 38.945312 193.070312 38.734375 192.917969 38.507812 C 192.765625 38.28125 192.636719 38.042969 192.535156 37.789062 C 192.429688 37.539062 192.351562 37.277344 192.296875 37.011719 C 192.242188 36.742188 192.214844 36.472656 192.214844 36.199219 C 192.214844 35.925781 192.242188 35.65625 192.296875 35.390625 C 192.351562 35.121094 192.429688 34.863281 192.535156 34.609375 C 192.636719 34.359375 192.765625 34.117188 192.917969 33.890625 C 193.070312 33.664062 193.242188 33.457031 193.4375 33.261719 C 193.628906 33.070312 193.839844 32.898438 194.070312 32.746094 C 194.296875 32.59375 194.535156 32.464844 194.789062 32.363281 C 195.042969 32.257812 195.304688 32.179688 195.570312 32.125 C 195.839844 32.070312 196.109375 32.046875 196.382812 32.046875 C 196.65625 32.046875 196.929688 32.070312 197.199219 32.125 C 197.464844 32.179688 197.726562 32.257812 197.980469 32.363281 C 198.230469 32.464844 198.472656 32.59375 198.699219 32.746094 C 198.925781 32.898438 199.136719 33.070312 199.332031 33.261719 C 199.523438 33.457031 199.699219 33.664062 199.847656 33.890625 C 200 34.117188 200.128906 34.359375 200.234375 34.609375 C 200.339844 34.863281 200.417969 35.121094 200.472656 35.390625 C 200.523438 35.65625 200.550781 35.925781 200.550781 36.199219 Z M 200.550781 36.199219 "
      fill-opacity="0.498" fill-rule="nonzero" />
  </g>
  <path fill="#0b8d9c"
    d="M 191.589844 46.441406 C 189.496094 48.445312 186.171875 48.378906 184.160156 46.292969 C 182.152344 44.207031 182.214844 40.890625 184.308594 38.886719 C 186.402344 36.882812 189.726562 36.949219 191.738281 39.035156 C 193.75 41.121094 193.683594 44.4375 191.589844 46.441406 Z M 191.589844 46.441406 "
    fill-opacity="0.749" fill-rule="nonzero" />
  <path fill="#0b8d9c"
    d="M 205.828125 52.84375 C 202.90625 55.636719 198.269531 55.546875 195.460938 52.636719 C 192.660156 49.726562 192.75 45.101562 195.667969 42.304688 C 198.585938 39.507812 203.226562 39.597656 206.03125 42.507812 C 208.835938 45.421875 208.746094 50.042969 205.828125 52.84375 Z M 205.828125 52.84375 "
    fill-opacity="0.498" fill-rule="nonzero" />
  <path fill="#0b8d9c"
    d="M 181.535156 106.949219 C 179.875 108.539062 177.238281 108.484375 175.640625 106.832031 C 174.046875 105.175781 174.101562 102.546875 175.757812 100.957031 C 177.417969 99.367188 180.054688 99.417969 181.652344 101.074219 C 183.246094 102.726562 183.195312 105.355469 181.535156 106.949219 Z M 181.535156 106.949219 "
    fill-opacity="0.498" fill-rule="nonzero" />
  <path fill="#0b8d9c"
    d="M 188.53125 95.898438 C 186.058594 98.269531 182.125 98.191406 179.742188 95.722656 C 177.367188 93.257812 177.441406 89.335938 179.917969 86.964844 C 182.394531 84.589844 186.328125 84.667969 188.707031 87.136719 C 191.082031 89.605469 191.007812 93.527344 188.53125 95.898438 Z M 188.53125 95.898438 "
    fill-opacity="0.749" fill-rule="nonzero" />
  <path fill="#0b8d9c"
    d="M 156.902344 86.359375 C 156.902344 86.679688 156.839844 86.988281 156.71875 87.285156 C 156.59375 87.582031 156.421875 87.84375 156.191406 88.070312 C 155.964844 88.296875 155.703125 88.46875 155.40625 88.59375 C 155.109375 88.714844 154.800781 88.777344 154.476562 88.777344 C 154.15625 88.777344 153.847656 88.714844 153.550781 88.59375 C 153.253906 88.46875 152.992188 88.296875 152.765625 88.070312 C 152.535156 87.84375 152.363281 87.582031 152.238281 87.285156 C 152.117188 86.988281 152.054688 86.679688 152.054688 86.359375 C 152.054688 86.039062 152.117188 85.730469 152.238281 85.433594 C 152.363281 85.136719 152.535156 84.875 152.765625 84.648438 C 152.992188 84.421875 153.253906 84.25 153.550781 84.125 C 153.847656 84.003906 154.15625 83.941406 154.476562 83.941406 C 154.800781 83.941406 155.109375 84.003906 155.40625 84.125 C 155.703125 84.25 155.964844 84.421875 156.191406 84.648438 C 156.421875 84.875 156.59375 85.136719 156.71875 85.433594 C 156.839844 85.730469 156.902344 86.039062 156.902344 86.359375 Z M 156.902344 86.359375 "
    fill-opacity="0.498" fill-rule="nonzero" />
  <path fill="#0b8d9c"
    d="M 150.421875 86.371094 C 150.421875 86.753906 150.347656 87.117188 150.203125 87.46875 C 150.058594 87.820312 149.847656 88.132812 149.578125 88.398438 C 149.308594 88.667969 149 88.875 148.644531 89.023438 C 148.292969 89.167969 147.925781 89.238281 147.546875 89.238281 C 147.164062 89.238281 146.796875 89.167969 146.445312 89.023438 C 146.09375 88.875 145.78125 88.667969 145.511719 88.398438 C 145.242188 88.132812 145.035156 87.820312 144.886719 87.46875 C 144.742188 87.117188 144.667969 86.753906 144.667969 86.371094 C 144.667969 85.992188 144.742188 85.625 144.886719 85.273438 C 145.035156 84.921875 145.242188 84.613281 145.511719 84.34375 C 145.78125 84.074219 146.09375 83.867188 146.445312 83.722656 C 146.796875 83.578125 147.164062 83.503906 147.546875 83.503906 C 147.925781 83.503906 148.292969 83.578125 148.644531 83.722656 C 149 83.867188 149.308594 84.074219 149.578125 84.34375 C 149.847656 84.613281 150.058594 84.921875 150.203125 85.273438 C 150.347656 85.625 150.421875 85.992188 150.421875 86.371094 Z M 150.421875 86.371094 "
    fill-opacity="0.498" fill-rule="nonzero" />
  <path fill="#0b8d9c"
    d="M 215.558594 57.824219 C 213.898438 59.414062 211.261719 59.363281 209.664062 57.707031 C 208.070312 56.050781 208.121094 53.421875 209.78125 51.832031 C 211.441406 50.242188 214.078125 50.292969 215.671875 51.949219 C 217.269531 53.601562 217.214844 56.234375 215.558594 57.824219 Z M 215.558594 57.824219 "
    fill-opacity="0.749" fill-rule="nonzero" />
  <path fill="#0b8d9c"
    d="M 251.800781 49.738281 C 251.800781 50.105469 251.726562 50.464844 251.585938 50.804688 C 251.445312 51.148438 251.242188 51.449219 250.980469 51.710938 C 250.714844 51.972656 250.414062 52.175781 250.070312 52.316406 C 249.726562 52.457031 249.371094 52.527344 249 52.527344 C 248.625 52.527344 248.269531 52.457031 247.925781 52.316406 C 247.582031 52.175781 247.28125 51.972656 247.019531 51.710938 C 246.753906 51.449219 246.550781 51.148438 246.410156 50.804688 C 246.269531 50.464844 246.195312 50.105469 246.195312 49.738281 C 246.195312 49.367188 246.269531 49.011719 246.410156 48.667969 C 246.550781 48.324219 246.753906 48.023438 247.019531 47.761719 C 247.28125 47.5 247.582031 47.296875 247.925781 47.15625 C 248.269531 47.015625 248.625 46.945312 249 46.945312 C 249.371094 46.945312 249.726562 47.015625 250.070312 47.15625 C 250.414062 47.296875 250.714844 47.5 250.980469 47.761719 C 251.242188 48.023438 251.445312 48.324219 251.585938 48.667969 C 251.726562 49.011719 251.800781 49.367188 251.800781 49.738281 Z M 251.800781 49.738281 "
    fill-opacity="0.749" fill-rule="nonzero" />
  <path fill="#0b8d9c"
    d="M 169.148438 138.898438 C 169.148438 139.171875 169.125 139.441406 169.070312 139.710938 C 169.015625 139.976562 168.9375 140.238281 168.832031 140.488281 C 168.726562 140.742188 168.601562 140.980469 168.449219 141.207031 C 168.296875 141.433594 168.121094 141.644531 167.929688 141.835938 C 167.734375 142.03125 167.523438 142.203125 167.296875 142.351562 C 167.070312 142.503906 166.828125 142.632812 166.578125 142.738281 C 166.324219 142.839844 166.0625 142.921875 165.796875 142.972656 C 165.527344 143.027344 165.257812 143.054688 164.980469 143.054688 C 164.707031 143.054688 164.4375 143.027344 164.167969 142.972656 C 163.902344 142.921875 163.640625 142.839844 163.386719 142.738281 C 163.132812 142.632812 162.894531 142.503906 162.667969 142.351562 C 162.4375 142.203125 162.230469 142.03125 162.035156 141.835938 C 161.84375 141.644531 161.667969 141.433594 161.515625 141.207031 C 161.363281 140.980469 161.238281 140.742188 161.132812 140.488281 C 161.027344 140.238281 160.949219 139.976562 160.894531 139.710938 C 160.839844 139.441406 160.816406 139.171875 160.816406 138.898438 C 160.816406 138.625 160.839844 138.355469 160.894531 138.089844 C 160.949219 137.820312 161.027344 137.558594 161.132812 137.308594 C 161.238281 137.054688 161.363281 136.816406 161.515625 136.589844 C 161.667969 136.363281 161.84375 136.152344 162.035156 135.960938 C 162.230469 135.765625 162.4375 135.59375 162.667969 135.445312 C 162.894531 135.292969 163.132812 135.164062 163.386719 135.058594 C 163.640625 134.957031 163.902344 134.875 164.167969 134.824219 C 164.4375 134.769531 164.707031 134.742188 164.980469 134.742188 C 165.257812 134.742188 165.527344 134.769531 165.796875 134.824219 C 166.0625 134.875 166.324219 134.957031 166.578125 135.058594 C 166.828125 135.164062 167.070312 135.292969 167.296875 135.445312 C 167.523438 135.59375 167.734375 135.765625 167.929688 135.960938 C 168.121094 136.152344 168.296875 136.363281 168.449219 136.589844 C 168.601562 136.816406 168.726562 137.054688 168.832031 137.308594 C 168.9375 137.558594 169.015625 137.820312 169.070312 138.089844 C 169.125 138.355469 169.148438 138.625 169.148438 138.898438 Z M 169.148438 138.898438 "
    fill-opacity="0.498" fill-rule="nonzero" />
  <path fill="#0b8d9c"
    d="M 155.550781 153.261719 C 152.328125 152.683594 150.179688 149.613281 150.757812 146.398438 C 151.332031 143.183594 154.414062 141.042969 157.640625 141.617188 C 160.867188 142.191406 163.011719 145.265625 162.433594 148.476562 C 161.859375 151.695312 158.777344 153.835938 155.550781 153.261719 Z M 155.550781 153.261719 "
    fill-opacity="0.749" fill-rule="nonzero" />
  <path fill="#0b8d9c"
    d="M 172.453125 140.617188 C 170.925781 140.371094 169.890625 138.9375 170.136719 137.414062 C 170.382812 135.890625 171.820312 134.859375 173.347656 135.105469 C 174.875 135.347656 175.910156 136.78125 175.664062 138.304688 C 175.417969 139.828125 173.980469 140.863281 172.453125 140.617188 Z M 172.453125 140.617188 "
    fill-opacity="0.749" fill-rule="nonzero" />
  <path fill="#0b8d9c"
    d="M 163.011719 58.421875 C 163.011719 58.695312 162.984375 58.964844 162.929688 59.234375 C 162.878906 59.5 162.796875 59.761719 162.695312 60.011719 C 162.589844 60.265625 162.460938 60.503906 162.308594 60.730469 C 162.15625 60.957031 161.984375 61.167969 161.789062 61.363281 C 161.597656 61.554688 161.386719 61.726562 161.160156 61.878906 C 160.929688 62.03125 160.691406 62.15625 160.4375 62.261719 C 160.183594 62.367188 159.925781 62.445312 159.65625 62.5 C 159.386719 62.550781 159.117188 62.578125 158.84375 62.578125 C 158.570312 62.578125 158.296875 62.550781 158.03125 62.5 C 157.761719 62.445312 157.5 62.367188 157.25 62.261719 C 156.996094 62.15625 156.753906 62.03125 156.527344 61.878906 C 156.300781 61.726562 156.089844 61.554688 155.894531 61.363281 C 155.703125 61.167969 155.53125 60.957031 155.378906 60.730469 C 155.226562 60.503906 155.097656 60.265625 154.992188 60.011719 C 154.886719 59.761719 154.808594 59.5 154.753906 59.234375 C 154.703125 58.964844 154.675781 58.695312 154.675781 58.421875 C 154.675781 58.152344 154.703125 57.878906 154.753906 57.613281 C 154.808594 57.34375 154.886719 57.085938 154.992188 56.832031 C 155.097656 56.582031 155.226562 56.339844 155.378906 56.113281 C 155.53125 55.886719 155.703125 55.679688 155.894531 55.484375 C 156.089844 55.292969 156.300781 55.121094 156.527344 54.96875 C 156.753906 54.816406 156.996094 54.6875 157.25 54.585938 C 157.5 54.480469 157.761719 54.402344 158.03125 54.347656 C 158.296875 54.292969 158.570312 54.269531 158.84375 54.269531 C 159.117188 54.269531 159.386719 54.292969 159.65625 54.347656 C 159.925781 54.402344 160.183594 54.480469 160.4375 54.585938 C 160.691406 54.6875 160.929688 54.816406 161.160156 54.96875 C 161.386719 55.121094 161.597656 55.292969 161.789062 55.484375 C 161.984375 55.679688 162.15625 55.886719 162.308594 56.113281 C 162.460938 56.339844 162.589844 56.582031 162.695312 56.832031 C 162.796875 57.085938 162.878906 57.34375 162.929688 57.613281 C 162.984375 57.878906 163.011719 58.152344 163.011719 58.421875 Z M 163.011719 58.421875 "
    fill-opacity="0.498" fill-rule="nonzero" />
  <path fill="#0b8d9c"
    d="M 164.683594 74.570312 C 162.285156 76.792969 158.53125 76.65625 156.300781 74.265625 C 154.070312 71.871094 154.207031 68.132812 156.605469 65.90625 C 159.007812 63.683594 162.761719 63.820312 164.988281 66.210938 C 167.222656 68.605469 167.085938 72.347656 164.683594 74.570312 Z M 164.683594 74.570312 "
    fill-opacity="0.749" fill-rule="nonzero" />
  <path fill="#0b8d9c"
    d="M 164.710938 53.503906 C 163.597656 54.570312 161.824219 54.539062 160.75 53.425781 C 159.679688 52.3125 159.714844 50.546875 160.828125 49.476562 C 161.945312 48.410156 163.71875 48.445312 164.789062 49.554688 C 165.863281 50.667969 165.828125 52.433594 164.710938 53.503906 Z M 164.710938 53.503906 "
    fill-opacity="0.749" fill-rule="nonzero" />
  <g clip-path="url(#8f3bc29555)">
    <g clip-path="url(#1b78d05b31)">
      <g clip-path="url(#e21653345a)">
        <g clip-path="url(#30ea5e4f94)">
          <path fill="#0b8d9c"
            d="M 140.011719 237.511719 C 132.070312 238.5 129.566406 248.535156 122.304688 252.199219 C 112.882812 257.214844 103.15625 257.429688 93.621094 262.273438 C 78.355469 269.484375 70.105469 285.59375 64.902344 300.757812 C 79.144531 240.800781 114.082031 264.753906 130.476562 238.570312 C 133.289062 235.847656 135.621094 234.230469 139.890625 233.902344 L 140.011719 237.511719 "
            fill-opacity="1" fill-rule="nonzero" />
        </g>
      </g>
    </g>
  </g>
  <g clip-path="url(#2634016fcf)">
    <g clip-path="url(#833d76909b)">
      <g clip-path="url(#d9b122b57f)">
        <g clip-path="url(#08f8710c0e)">
          <path fill="#0b8d9c"
            d="M 75.46875 277.914062 C 75.503906 277.902344 75.59375 277.835938 75.535156 277.84375 C 75.410156 277.96875 75.078125 278.246094 74.855469 279.257812 C 73.796875 284.707031 75.21875 290.722656 74.183594 296.71875 C 73.371094 301.5 70.675781 305.507812 69.824219 310.476562 C 70.113281 305.523438 72.574219 301.023438 72.808594 295.652344 C 73.015625 289.792969 71.167969 284.929688 71.6875 278.78125 C 71.847656 277.246094 72.699219 274.496094 75.359375 274.300781 L 75.46875 277.914062 "
            fill-opacity="1" fill-rule="nonzero" />
        </g>
      </g>
    </g>
  </g>
  <g clip-path="url(#5e6e0cb6db)">
    <g clip-path="url(#2270702d22)">
      <g clip-path="url(#4a557779cb)">
        <g clip-path="url(#51feecbda7)">
          <path fill="#0b8d9c"
            d="M 106.792969 257.398438 C 105.324219 257.460938 103.695312 258.777344 102.601562 260.542969 C 96.496094 275.402344 96.421875 294.167969 84.578125 307.058594 C 97.917969 280.542969 91.984375 271.246094 99.40625 258.367188 C 100.882812 256.191406 103.320312 253.878906 106.761719 253.785156 L 106.792969 257.398438 "
            fill-opacity="1" fill-rule="nonzero" />
        </g>
      </g>
    </g>
  </g>
  <g clip-path="url(#e6287c9a36)">
    <g clip-path="url(#2e7d6b5c23)">
      <g clip-path="url(#126c131934)">
        <g clip-path="url(#63eeb6562d)">
          <path fill="#0b8d9c"
            d="M 95.746094 286.261719 C 94.347656 293.292969 97.992188 301.574219 100.277344 308.652344 C 97.050781 301.550781 92.253906 293.976562 92.976562 285.480469 L 95.746094 286.261719 "
            fill-opacity="1" fill-rule="nonzero" />
        </g>
      </g>
    </g>
  </g>
  <g clip-path="url(#95de2c641d)">
    <g clip-path="url(#4f75b6a90f)">
      <g clip-path="url(#e5a19e483e)">
        <g clip-path="url(#e40b02a706)">
          <path fill="#0b8d9c"
            d="M 122.261719 251.027344 C 122.246094 251.046875 122.277344 251.070312 122.234375 251.09375 C 122.160156 251.160156 121.859375 251.222656 121.566406 251.765625 C 121.542969 251.820312 121.523438 251.882812 121.488281 251.996094 C 121.160156 253.957031 121.574219 257.914062 120.671875 260.671875 C 118.496094 267.597656 114.28125 274.5625 108.960938 280.082031 C 112.46875 272.722656 117.035156 264.433594 117.457031 255.792969 C 116.921875 252.433594 118.082031 245.839844 123.871094 247.804688 L 122.261719 251.027344 "
            fill-opacity="1" fill-rule="nonzero" />
        </g>
      </g>
    </g>
  </g>
  <g clip-path="url(#67390cfc64)">
    <g clip-path="url(#69e5b2d833)">
      <g clip-path="url(#0c73146f83)">
        <g clip-path="url(#ec94e89f91)">
          <path fill="#0b8d9c"
            d="M 118.300781 266.558594 C 118.476562 269.703125 118.910156 272.882812 119.613281 276.050781 C 117.808594 273.351562 116.199219 270.464844 114.816406 267.425781 L 118.300781 266.558594 "
            fill-opacity="1" fill-rule="nonzero" />
        </g>
      </g>
    </g>
  </g>
  <g clip-path="url(#f52c1df12c)">
    <g clip-path="url(#3696644892)">
      <g clip-path="url(#1ebd2c72c1)">
        <g clip-path="url(#d1d8aa40f0)">
          <path fill="#0b8d9c"
            d="M 132.792969 242.121094 C 130.996094 250.878906 135.707031 260.875 135.929688 270.234375 C 138.496094 297.082031 107.011719 298.28125 108.871094 319.0625 C 103.523438 303.902344 121.59375 295.484375 128.628906 284.523438 C 134.210938 275.300781 130.417969 264.222656 128.980469 253.949219 C 128.640625 249.046875 127.15625 244.464844 130.058594 239.765625 L 132.792969 242.121094 "
            fill-opacity="1" fill-rule="nonzero" />
        </g>
      </g>
    </g>
  </g>
  <g clip-path="url(#e36695fd4c)">
    <g clip-path="url(#5269a1d5a1)">
      <g clip-path="url(#975e6da589)">
        <g clip-path="url(#875224e276)">
          <path fill="#0b8d9c"
            d="M 123.128906 295.082031 C 123.453125 295.089844 123.898438 294.917969 124.121094 294.707031 C 124.355469 294.496094 124.433594 294.324219 124.480469 294.214844 C 124.5625 293.996094 124.539062 293.957031 124.539062 293.894531 C 124.492188 294.378906 124.429688 294.667969 124.375 295.699219 C 124.34375 296.113281 124.339844 296.523438 124.34375 296.9375 C 124.308594 302.007812 126.230469 307.914062 129.847656 312.320312 C 125.589844 308.558594 122.519531 303.292969 121.433594 297.1875 C 121.351562 296.726562 121.277344 296.265625 121.234375 295.800781 C 121.175781 295.382812 121.121094 294.746094 121.066406 293.667969 C 121.078125 293.386719 121.097656 293.125 121.269531 292.707031 C 121.363281 292.503906 121.5 292.234375 121.816406 291.957031 C 122.121094 291.671875 122.675781 291.457031 123.109375 291.46875 L 123.128906 295.082031 "
            fill-opacity="1" fill-rule="nonzero" />
        </g>
      </g>
    </g>
  </g>
  <g clip-path="url(#207989aefb)">
    <g clip-path="url(#c8aa94cfb5)">
      <g clip-path="url(#eed0f78295)">
        <g clip-path="url(#c59033402c)">
          <path fill="#0b8d9c"
            d="M 135.167969 238.886719 C 134.285156 241.652344 135.386719 245.285156 137.3125 248.304688 C 155.574219 269.949219 154.199219 287.765625 156.148438 309.5625 C 152.625 298.769531 151.878906 286.804688 148.558594 275.667969 C 145.117188 259.339844 127.492188 249.675781 131.824219 237.542969 L 135.167969 238.886719 "
            fill-opacity="1" fill-rule="nonzero" />
        </g>
      </g>
    </g>
  </g>
  <g clip-path="url(#b2b0e2595b)">
    <g clip-path="url(#8b747d8c6c)">
      <g clip-path="url(#18abcfaa5b)">
        <g clip-path="url(#6421fa39a9)">
          <path fill="#0b8d9c"
            d="M 153.71875 286.941406 C 158.144531 294.800781 168.683594 294.996094 174.457031 301.421875 C 168.214844 295.523438 157.503906 296.226562 152 288.234375 L 153.71875 286.941406 "
            fill-opacity="1" fill-rule="nonzero" />
        </g>
      </g>
    </g>
  </g>
  <g clip-path="url(#e5ab8fb590)">
    <g clip-path="url(#05033511d5)">
      <g clip-path="url(#6244ea0ec9)">
        <g clip-path="url(#f2b001d3dd)">
          <path fill="#0b8d9c"
            d="M 150.296875 271.582031 C 146.847656 287.183594 131.375 288.042969 132.335938 299.941406 C 130.429688 287.933594 146.699219 282.890625 146.835938 270.597656 L 150.296875 271.582031 "
            fill-opacity="1" fill-rule="nonzero" />
        </g>
      </g>
    </g>
  </g>
  <g clip-path="url(#3562d3dbdb)">
    <g clip-path="url(#c2f5ddd18d)">
      <path fill="#0b8d9c"
        d="M 176.152344 115.117188 L 182.804688 115.117188 L 182.804688 121.769531 L 176.152344 121.769531 Z M 176.152344 115.117188 "
        fill-opacity="1" fill-rule="nonzero" />
    </g>
  </g>
  <g fill="#c93148" fill-opacity="1">
    <g transform="translate(118.90944, 237.447806)">
      <g>
        <path
          d="M 52.046875 -80.71875 L 52.046875 -64.578125 L 24.265625 -64.578125 L 24.265625 -48.53125 L 50.875 -48.53125 L 50.875 -32.390625 L 24.265625 -32.390625 L 24.265625 -16.140625 L 52.046875 -16.140625 L 52.046875 0 L 5.875 0 L 5.875 -80.71875 Z M 52.046875 -80.71875 " />
      </g>
    </g>
  </g>
  <g fill="#c93148" fill-opacity="1">
    <g transform="translate(175.648793, 237.447806)">
      <g>
        <path
          d="M 48.828125 -16.640625 C 51.628906 -16.640625 54.347656 -17.0625 56.984375 -17.90625 C 59.628906 -18.75 61.570312 -19.5625 62.8125 -20.34375 L 64.671875 -21.625 L 72.5 -5.96875 C 72.238281 -5.769531 71.878906 -5.507812 71.421875 -5.1875 C 70.960938 -4.863281 69.898438 -4.257812 68.234375 -3.375 C 66.578125 -2.5 64.800781 -1.734375 62.90625 -1.078125 C 61.019531 -0.421875 58.539062 0.164062 55.46875 0.6875 C 52.40625 1.207031 49.242188 1.46875 45.984375 1.46875 C 38.484375 1.46875 31.375 -0.375 24.65625 -4.0625 C 17.9375 -7.75 12.519531 -12.820312 8.40625 -19.28125 C 4.300781 -25.738281 2.25 -32.71875 2.25 -40.21875 C 2.25 -45.882812 3.453125 -51.328125 5.859375 -56.546875 C 8.273438 -61.765625 11.488281 -66.234375 15.5 -69.953125 C 19.519531 -73.671875 24.203125 -76.640625 29.546875 -78.859375 C 34.898438 -81.078125 40.378906 -82.1875 45.984375 -82.1875 C 51.203125 -82.1875 56.007812 -81.566406 60.40625 -80.328125 C 64.8125 -79.085938 67.929688 -77.847656 69.765625 -76.609375 L 72.5 -74.75 L 64.671875 -59.09375 C 64.210938 -59.488281 63.523438 -59.960938 62.609375 -60.515625 C 61.703125 -61.066406 59.878906 -61.800781 57.140625 -62.71875 C 54.398438 -63.632812 51.628906 -64.09375 48.828125 -64.09375 C 44.390625 -64.09375 40.410156 -63.375 36.890625 -61.9375 C 33.367188 -60.5 30.578125 -58.601562 28.515625 -56.25 C 26.460938 -53.90625 24.894531 -51.378906 23.8125 -48.671875 C 22.738281 -45.960938 22.203125 -43.207031 22.203125 -40.40625 C 22.203125 -34.28125 24.5 -28.785156 29.09375 -23.921875 C 33.695312 -19.066406 40.273438 -16.640625 48.828125 -16.640625 Z M 48.828125 -16.640625 " />
      </g>
    </g>
  </g>
  <g fill="#c93148" fill-opacity="1">
    <g transform="translate(249.312122, 237.447806)">
      <g>
        <path
          d="M 5.875 -80.71875 L 35.328125 -80.71875 C 43.546875 -80.71875 50.195312 -78.597656 55.28125 -74.359375 C 60.363281 -70.117188 62.90625 -63.953125 62.90625 -55.859375 C 62.90625 -47.773438 60.328125 -41.429688 55.171875 -36.828125 C 50.023438 -32.234375 43.410156 -29.9375 35.328125 -29.9375 L 24.265625 -29.9375 L 24.265625 0 L 5.875 0 Z M 24.265625 -44.609375 L 29.453125 -44.609375 C 33.554688 -44.609375 36.929688 -45.441406 39.578125 -47.109375 C 42.222656 -48.773438 43.546875 -51.5 43.546875 -55.28125 C 43.546875 -59.125 42.222656 -61.878906 39.578125 -63.546875 C 36.929688 -65.210938 33.554688 -66.046875 29.453125 -66.046875 L 24.265625 -66.046875 Z M 24.265625 -44.609375 " />
      </g>
    </g>
  </g>
  <g clip-path="url(#23734ab688)">
    <g clip-path="url(#ba8d225ed9)">
      <path fill="#0b8d9c"
        d="M 181.492188 59.640625 L 190.453125 59.640625 L 190.453125 68.601562 L 181.492188 68.601562 Z M 181.492188 59.640625 "
        fill-opacity="1" fill-rule="nonzero" />
    </g>
  </g>
  <g clip-path="url(#9e87f97cc3)">
    <g clip-path="url(#a760f3b69a)">
      <path fill="#0b8d9c"
        d="M 197.652344 75.800781 L 206.609375 75.800781 L 206.609375 84.757812 L 197.652344 84.757812 Z M 197.652344 75.800781 "
        fill-opacity="1" fill-rule="nonzero" />
    </g>
  </g>
  <g clip-path="url(#fcaeffe456)">
    <g clip-path="url(#d9cbc4bc85)">
      <path fill="#0b8d9c"
        d="M 232.847656 55.164062 L 241.804688 55.164062 L 241.804688 64.121094 L 232.847656 64.121094 Z M 232.847656 55.164062 "
        fill-opacity="1" fill-rule="nonzero" />
    </g>
  </g>
  <g clip-path="url(#5da77006f6)">
    <g clip-path="url(#267abf85e6)">
      <path fill="#0b8d9c"
        d="M 218.246094 103.945312 L 227.207031 103.945312 L 227.207031 112.90625 L 218.246094 112.90625 Z M 218.246094 103.945312 "
        fill-opacity="1" fill-rule="nonzero" />
    </g>
  </g>
</svg>
