<svg xmlns="http://www.w3.org/2000/svg" xmlns:xlink="http://www.w3.org/1999/xlink" width="200"
  height="200"
  zoomAndPan="magnify" viewBox="0 0 375 374.999991" preserveAspectRatio="xMidYMid meet"
  version="1.0">
  <defs>
    <clipPath id="a3824b2227">
      <path
        d="M 51.324219 47.625 L 323.574219 47.625 L 323.574219 319.875 L 51.324219 319.875 Z M 51.324219 47.625 "
        clip-rule="nonzero" />
    </clipPath>
  </defs>
  <g clip-path="url(#a3824b2227)">
    <path fill="#B1D137"
      d="M 187.449219 319.875 C 262.628906 319.875 323.574219 258.929688 323.574219 183.75 C 323.574219 108.570312 262.628906 47.625 187.449219 47.625 C 112.269531 47.625 51.324219 108.570312 51.324219 183.75 C 51.324219 258.929688 112.269531 319.875 187.449219 319.875 Z M 125.625 125.835938 L 187.449219 175.296875 L 249.273438 125.835938 L 251.058594 124.347656 L 123.839844 124.347656 Z M 257.675781 136.019531 L 260.050781 134.039062 L 260.050781 236.546875 C 260.050781 240.191406 257.09375 243.148438 253.449219 243.148438 L 121.449219 243.148438 C 117.804688 243.148438 114.847656 240.191406 114.847656 236.546875 L 114.847656 134.039062 L 117.222656 136.019531 L 117.328125 136.101562 L 183.328125 188.902344 C 185.738281 190.832031 189.160156 190.832031 191.570312 188.902344 L 257.574219 136.101562 Z M 257.675781 136.019531 "
      fill-opacity="1" fill-rule="evenodd" />
  </g>
</svg>


    


  
    
      
      
  




  
    
    


