<svg xmlns="http://www.w3.org/2000/svg" xmlns:xlink="http://www.w3.org/1999/xlink"
  zoomAndPan="magnify" viewBox="0 0 375 374.999991" preserveAspectRatio="xMidYMid meet"
  version="1.0">
  <defs>
    <clipPath id="73805d113e">
      <path d="M 118 5.558594 L 251 5.558594 L 251 137 L 118 137 Z M 118 5.558594 "
        clip-rule="nonzero" />
    </clipPath>
    <clipPath id="1fbf9cd774">
      <path d="M 12.136719 128 L 356 128 L 356 369.199219 L 12.136719 369.199219 Z M 12.136719 128 "
        clip-rule="nonzero" />
    </clipPath>
  </defs>
  <g clip-path="url(#73805d113e)">
    <path fill="#ffffff"
      d="M 250.089844 71.167969 C 250.089844 72.246094 250.0625 73.320312 250.011719 74.394531 C 249.957031 75.46875 249.878906 76.539062 249.773438 77.609375 C 249.667969 78.679688 249.535156 79.75 249.375 80.8125 C 249.21875 81.875 249.035156 82.9375 248.824219 83.992188 C 248.613281 85.046875 248.378906 86.09375 248.117188 87.136719 C 247.855469 88.179688 247.566406 89.21875 247.253906 90.246094 C 246.941406 91.277344 246.605469 92.296875 246.242188 93.308594 C 245.878906 94.324219 245.492188 95.324219 245.078125 96.320312 C 244.667969 97.3125 244.230469 98.296875 243.769531 99.269531 C 243.308594 100.242188 242.824219 101.203125 242.316406 102.148438 C 241.808594 103.097656 241.277344 104.035156 240.722656 104.957031 C 240.171875 105.878906 239.59375 106.789062 238.996094 107.683594 C 238.398438 108.574219 237.777344 109.457031 237.136719 110.320312 C 236.492188 111.183594 235.832031 112.03125 235.148438 112.863281 C 234.464844 113.695312 233.761719 114.507812 233.035156 115.304688 C 232.3125 116.101562 231.570312 116.878906 230.808594 117.640625 C 230.046875 118.402344 229.265625 119.144531 228.46875 119.863281 C 227.671875 120.585938 226.855469 121.289062 226.023438 121.972656 C 225.191406 122.65625 224.339844 123.316406 223.476562 123.957031 C 222.609375 124.597656 221.730469 125.214844 220.832031 125.8125 C 219.9375 126.410156 219.027344 126.988281 218.105469 127.539062 C 217.179688 128.09375 216.242188 128.621094 215.292969 129.128906 C 214.34375 129.636719 213.378906 130.121094 212.40625 130.578125 C 211.433594 131.039062 210.449219 131.476562 209.453125 131.886719 C 208.457031 132.300781 207.453125 132.6875 206.4375 133.046875 C 205.425781 133.410156 204.402344 133.746094 203.371094 134.058594 C 202.339844 134.371094 201.300781 134.660156 200.257812 134.921875 C 199.210938 135.183594 198.160156 135.417969 197.105469 135.628906 C 196.046875 135.835938 194.988281 136.019531 193.921875 136.179688 C 192.855469 136.335938 191.785156 136.46875 190.714844 136.574219 C 189.640625 136.679688 188.566406 136.757812 187.492188 136.8125 C 186.417969 136.863281 185.339844 136.890625 184.261719 136.890625 C 183.183594 136.890625 182.109375 136.863281 181.03125 136.8125 C 179.957031 136.757812 178.882812 136.679688 177.808594 136.574219 C 176.738281 136.46875 175.667969 136.335938 174.601562 136.179688 C 173.539062 136.019531 172.476562 135.835938 171.421875 135.628906 C 170.363281 135.417969 169.3125 135.183594 168.269531 134.921875 C 167.222656 134.660156 166.183594 134.371094 165.152344 134.058594 C 164.121094 133.746094 163.101562 133.410156 162.085938 133.046875 C 161.070312 132.6875 160.066406 132.300781 159.070312 131.886719 C 158.074219 131.476562 157.089844 131.039062 156.117188 130.578125 C 155.144531 130.121094 154.183594 129.636719 153.230469 129.128906 C 152.28125 128.621094 151.34375 128.09375 150.421875 127.539062 C 149.496094 126.988281 148.585938 126.410156 147.691406 125.8125 C 146.796875 125.214844 145.914062 124.597656 145.050781 123.957031 C 144.183594 123.316406 143.335938 122.65625 142.503906 121.972656 C 141.667969 121.289062 140.855469 120.585938 140.054688 119.863281 C 139.257812 119.144531 138.476562 118.402344 137.714844 117.640625 C 136.953125 116.878906 136.210938 116.101562 135.488281 115.304688 C 134.765625 114.507812 134.0625 113.695312 133.378906 112.863281 C 132.695312 112.03125 132.03125 111.183594 131.390625 110.320312 C 130.746094 109.453125 130.128906 108.574219 129.527344 107.683594 C 128.929688 106.789062 128.355469 105.878906 127.800781 104.957031 C 127.246094 104.035156 126.714844 103.097656 126.207031 102.148438 C 125.699219 101.199219 125.214844 100.242188 124.753906 99.269531 C 124.292969 98.296875 123.859375 97.3125 123.445312 96.320312 C 123.035156 95.324219 122.644531 94.324219 122.285156 93.308594 C 121.921875 92.296875 121.582031 91.277344 121.269531 90.246094 C 120.957031 89.21875 120.671875 88.179688 120.40625 87.136719 C 120.144531 86.09375 119.910156 85.046875 119.699219 83.992188 C 119.488281 82.9375 119.304688 81.875 119.148438 80.8125 C 118.988281 79.75 118.859375 78.679688 118.753906 77.609375 C 118.648438 76.539062 118.566406 75.46875 118.515625 74.394531 C 118.460938 73.320312 118.433594 72.246094 118.433594 71.167969 C 118.433594 70.09375 118.460938 69.019531 118.515625 67.945312 C 118.566406 66.871094 118.648438 65.796875 118.753906 64.726562 C 118.859375 63.65625 118.988281 62.589844 119.148438 61.527344 C 119.304688 60.460938 119.488281 59.402344 119.699219 58.347656 C 119.910156 57.292969 120.144531 56.242188 120.40625 55.199219 C 120.671875 54.15625 120.957031 53.121094 121.269531 52.089844 C 121.582031 51.0625 121.921875 50.042969 122.285156 49.027344 C 122.644531 48.015625 123.035156 47.011719 123.445312 46.019531 C 123.859375 45.023438 124.292969 44.042969 124.753906 43.070312 C 125.214844 42.097656 125.699219 41.136719 126.207031 40.1875 C 126.714844 39.238281 127.246094 38.304688 127.800781 37.382812 C 128.355469 36.460938 128.929688 35.550781 129.527344 34.65625 C 130.128906 33.761719 130.746094 32.882812 131.390625 32.019531 C 132.03125 31.15625 132.695312 30.308594 133.378906 29.476562 C 134.0625 28.644531 134.765625 27.832031 135.488281 27.035156 C 136.210938 26.238281 136.953125 25.457031 137.714844 24.699219 C 138.476562 23.9375 139.257812 23.195312 140.054688 22.472656 C 140.855469 21.75 141.667969 21.046875 142.503906 20.367188 C 143.335938 19.683594 144.183594 19.023438 145.050781 18.382812 C 145.914062 17.742188 146.796875 17.121094 147.691406 16.523438 C 148.585938 15.925781 149.496094 15.351562 150.421875 14.796875 C 151.34375 14.246094 152.28125 13.714844 153.230469 13.207031 C 154.183594 12.703125 155.144531 12.21875 156.117188 11.757812 C 157.089844 11.296875 158.074219 10.863281 159.070312 10.449219 C 160.066406 10.039062 161.070312 9.652344 162.085938 9.289062 C 163.101562 8.929688 164.121094 8.589844 165.152344 8.277344 C 166.183594 7.964844 167.222656 7.679688 168.269531 7.417969 C 169.3125 7.15625 170.363281 6.921875 171.421875 6.710938 C 172.476562 6.5 173.539062 6.316406 174.601562 6.160156 C 175.667969 6.003906 176.738281 5.871094 177.808594 5.765625 C 178.882812 5.660156 179.957031 5.582031 181.03125 5.527344 C 182.109375 5.476562 183.183594 5.449219 184.261719 5.449219 C 185.339844 5.449219 186.417969 5.476562 187.492188 5.527344 C 188.566406 5.582031 189.640625 5.660156 190.714844 5.765625 C 191.785156 5.871094 192.855469 6.003906 193.921875 6.160156 C 194.988281 6.316406 196.046875 6.5 197.105469 6.710938 C 198.160156 6.921875 199.210938 7.15625 200.257812 7.417969 C 201.300781 7.679688 202.339844 7.964844 203.371094 8.277344 C 204.402344 8.589844 205.425781 8.929688 206.4375 9.289062 C 207.453125 9.652344 208.457031 10.039062 209.453125 10.449219 C 210.449219 10.863281 211.433594 11.296875 212.40625 11.757812 C 213.378906 12.21875 214.34375 12.703125 215.292969 13.207031 C 216.242188 13.714844 217.179688 14.246094 218.105469 14.796875 C 219.027344 15.351562 219.9375 15.925781 220.832031 16.523438 C 221.730469 17.121094 222.609375 17.742188 223.476562 18.382812 C 224.339844 19.023438 225.191406 19.683594 226.023438 20.367188 C 226.855469 21.046875 227.671875 21.75 228.46875 22.472656 C 229.265625 23.195312 230.046875 23.9375 230.808594 24.699219 C 231.570312 25.457031 232.3125 26.238281 233.035156 27.035156 C 233.761719 27.832031 234.464844 28.644531 235.148438 29.476562 C 235.832031 30.308594 236.492188 31.15625 237.136719 32.019531 C 237.777344 32.882812 238.398438 33.761719 238.996094 34.65625 C 239.59375 35.550781 240.171875 36.460938 240.722656 37.382812 C 241.277344 38.304688 241.808594 39.238281 242.316406 40.1875 C 242.824219 41.136719 243.308594 42.097656 243.769531 43.070312 C 244.230469 44.042969 244.667969 45.023438 245.078125 46.019531 C 245.492188 47.011719 245.878906 48.015625 246.242188 49.027344 C 246.605469 50.042969 246.941406 51.0625 247.253906 52.089844 C 247.566406 53.121094 247.855469 54.15625 248.117188 55.199219 C 248.378906 56.242188 248.613281 57.292969 248.824219 58.347656 C 249.035156 59.402344 249.21875 60.460938 249.375 61.527344 C 249.535156 62.589844 249.667969 63.65625 249.773438 64.726562 C 249.878906 65.796875 249.957031 66.871094 250.011719 67.945312 C 250.0625 69.019531 250.089844 70.09375 250.089844 71.167969 Z M 250.089844 71.167969 "
      fill-opacity="1" fill-rule="nonzero" />
  </g>
  <g clip-path="url(#1fbf9cd774)">
    <path fill="#ffffff"
      d="M 341.675781 311.285156 L 341.675781 263.421875 C 350.109375 259.820312 355.984375 251.835938 355.984375 242.539062 L 355.984375 225.546875 C 355.984375 216.25 350.109375 208.265625 341.675781 204.660156 L 341.675781 162.605469 C 341.675781 157.585938 338.582031 154.398438 334.3125 154.398438 C 333.238281 154.398438 332.089844 154.601562 330.894531 155.027344 L 294.886719 167.902344 C 279.957031 149.257812 260.015625 135.21875 236.441406 128.015625 C 222.683594 140.613281 204.359375 148.320312 184.261719 148.320312 C 164.175781 148.320312 145.855469 140.621094 132.101562 128.03125 C 107.523438 135.539062 86.878906 150.449219 71.761719 170.285156 L 37.703125 158.859375 C 36.5625 158.476562 35.464844 158.292969 34.429688 158.292969 C 30.046875 158.292969 26.851562 161.558594 26.851562 166.648438 L 26.851562 204.660156 C 18.417969 208.265625 12.539062 216.25 12.539062 225.546875 L 12.539062 242.539062 C 12.539062 251.835938 18.417969 259.820312 26.851562 263.421875 L 26.851562 309.265625 C 26.851562 315.550781 31.753906 322.273438 37.742188 324.207031 L 172.535156 367.683594 C 175.621094 368.679688 179.730469 369.183594 183.808594 369.183594 C 187.644531 369.183594 191.457031 368.738281 194.375 367.847656 L 330.730469 326.070312 C 336.75 324.222656 341.675781 317.574219 341.675781 311.285156 Z M 178.539062 357.351562 C 177.519531 357.1875 176.644531 357 176.054688 356.808594 L 41.261719 313.332031 C 39.988281 312.921875 38.296875 310.601562 38.296875 309.265625 L 38.296875 265.40625 C 51.066406 264.703125 61.195312 254.75 61.195312 242.539062 L 61.195312 225.546875 C 61.195312 213.335938 51.066406 203.378906 38.296875 202.679688 L 38.296875 171.117188 L 168.933594 214.9375 C 172.171875 216.023438 175.5625 216.550781 178.539062 216.792969 Z M 330.226562 202.679688 C 317.460938 203.378906 307.328125 213.335938 307.328125 225.546875 L 307.328125 242.539062 C 307.328125 254.75 317.460938 264.703125 330.226562 265.40625 L 330.226562 311.285156 C 330.226562 312.539062 328.570312 314.773438 327.371094 315.140625 L 191.019531 356.917969 C 190.714844 357.011719 190.347656 357.089844 189.988281 357.167969 L 189.988281 216.492188 C 192.929688 216.101562 195.695312 215.5 198.066406 214.652344 L 330.226562 167.410156 Z M 330.226562 202.679688 "
      fill-opacity="1" fill-rule="nonzero" />
  </g>
</svg>
