<svg xmlns="http://www.w3.org/2000/svg" xmlns:xlink="http://www.w3.org/1999/xlink" width="500" zoomAndPan="magnify" viewBox="0 0 375 374.999991" height="500" preserveAspectRatio="xMidYMid meet" version="1.0"><defs><filter x="0%" y="0%" width="100%" height="100%" id="941d959675"><feColorMatrix values="0 0 0 0 1 0 0 0 0 1 0 0 0 0 1 0 0 0 1 0" color-interpolation-filters="sRGB"/></filter><g/><clipPath id="b9444a840d"><path d="M 4.898438 6.429688 L 367.042969 6.429688 L 367.042969 368.570312 L 4.898438 368.570312 Z M 4.898438 6.429688 " clip-rule="nonzero"/></clipPath><clipPath id="645acaf6c3"><path d="M 185.972656 6.429688 C 85.96875 6.429688 4.898438 87.496094 4.898438 187.5 C 4.898438 287.503906 85.96875 368.570312 185.972656 368.570312 C 285.976562 368.570312 367.042969 287.503906 367.042969 187.5 C 367.042969 87.496094 285.976562 6.429688 185.972656 6.429688 " clip-rule="nonzero"/></clipPath><clipPath id="31e2521c45"><path d="M 132 36 L 262 36 L 262 233.796875 L 132 233.796875 Z M 132 36 " clip-rule="nonzero"/></clipPath><mask id="be7980cdba"><g filter="url(#941d959675)"><rect x="-37.5" width="450" fill="#000000" y="-37.499999" height="449.999989" fill-opacity="0.498"/></g></mask><clipPath id="420232353f"><rect x="0" width="17" y="0" height="17"/></clipPath><mask id="b8a1e492ed"><g filter="url(#941d959675)"><rect x="-37.5" width="450" fill="#000000" y="-37.499999" height="449.999989" fill-opacity="0.498"/></g></mask><clipPath id="9b49dd0343"><path d="M 1 0.238281 L 19 0.238281 L 19 18.71875 L 1 18.71875 Z M 1 0.238281 " clip-rule="nonzero"/></clipPath><clipPath id="d4d60d1954"><rect x="0" width="20" y="0" height="19"/></clipPath><mask id="9f8794236c"><g filter="url(#941d959675)"><rect x="-37.5" width="450" fill="#000000" y="-37.499999" height="449.999989" fill-opacity="0.498"/></g></mask><clipPath id="432e14fa06"><path d="M 0.398438 0.121094 L 18.878906 0.121094 L 18.878906 18.601562 L 0.398438 18.601562 Z M 0.398438 0.121094 " clip-rule="nonzero"/></clipPath><clipPath id="e66a0ab33a"><rect x="0" width="19" y="0" height="19"/></clipPath><mask id="856ff3aa92"><g filter="url(#941d959675)"><rect x="-37.5" width="450" fill="#000000" y="-37.499999" height="449.999989" fill-opacity="0.749"/></g></mask><clipPath id="2dca69c713"><path d="M 1 0.359375 L 26 0.359375 L 26 25.800781 L 1 25.800781 Z M 1 0.359375 " clip-rule="nonzero"/></clipPath><clipPath id="f0f35586bc"><rect x="0" width="27" y="0" height="26"/></clipPath><mask id="0a1524e0c7"><g filter="url(#941d959675)"><rect x="-37.5" width="450" fill="#000000" y="-37.499999" height="449.999989" fill-opacity="0.498"/></g></mask><clipPath id="55ce8d126b"><path d="M 1 0.238281 L 16 0.238281 L 16 15 L 1 15 Z M 1 0.238281 " clip-rule="nonzero"/></clipPath><clipPath id="212f93e8c1"><rect x="0" width="17" y="0" height="16"/></clipPath><mask id="17a65bd6f7"><g filter="url(#941d959675)"><rect x="-37.5" width="450" fill="#000000" y="-37.499999" height="449.999989" fill-opacity="0.498"/></g></mask><clipPath id="ad00a35949"><path d="M 1 0.078125 L 13.398438 0.078125 L 13.398438 13 L 1 13 Z M 1 0.078125 " clip-rule="nonzero"/></clipPath><clipPath id="cfcabd68fd"><rect x="0" width="14" y="0" height="14"/></clipPath><mask id="6a58673898"><g filter="url(#941d959675)"><rect x="-37.5" width="450" fill="#000000" y="-37.499999" height="449.999989" fill-opacity="0.498"/></g></mask><clipPath id="10e794a299"><path d="M 0 1 L 10.800781 1 L 10.800781 11.71875 L 0 11.71875 Z M 0 1 " clip-rule="nonzero"/></clipPath><clipPath id="638d342e1e"><rect x="0" width="11" y="0" height="12"/></clipPath><clipPath id="1f5e60ba66"><path d="M 129.148438 85 L 141 85 L 141 97 L 129.148438 97 Z M 129.148438 85 " clip-rule="nonzero"/></clipPath><mask id="75d4b2a935"><g filter="url(#941d959675)"><rect x="-37.5" width="450" fill="#000000" y="-37.499999" height="449.999989" fill-opacity="0.749"/></g></mask><clipPath id="4206572e93"><path d="M 0.148438 1 L 11 1 L 11 11.960938 L 0.148438 11.960938 Z M 0.148438 1 " clip-rule="nonzero"/></clipPath><clipPath id="d6455110a6"><rect x="0" width="12" y="0" height="12"/></clipPath><clipPath id="e774168a1e"><path d="M 249 50 L 266.398438 50 L 266.398438 67 L 249 67 Z M 249 50 " clip-rule="nonzero"/></clipPath><mask id="62f5fe1363"><g filter="url(#941d959675)"><rect x="-37.5" width="450" fill="#000000" y="-37.499999" height="449.999989" fill-opacity="0.498"/></g></mask><clipPath id="888234b24a"><path d="M 1 0.160156 L 17.398438 0.160156 L 17.398438 16.71875 L 1 16.71875 Z M 1 0.160156 " clip-rule="nonzero"/></clipPath><clipPath id="e185dcbc64"><rect x="0" width="18" y="0" height="17"/></clipPath><mask id="c4d035e66a"><g filter="url(#941d959675)"><rect x="-37.5" width="450" fill="#000000" y="-37.499999" height="449.999989" fill-opacity="0.498"/></g></mask><clipPath id="336fb53012"><path d="M 0.71875 0.320312 L 9.839844 0.320312 L 9.839844 9 L 0.71875 9 Z M 0.71875 0.320312 " clip-rule="nonzero"/></clipPath><clipPath id="0838f3b627"><rect x="0" width="10" y="0" height="10"/></clipPath><mask id="898b152eff"><g filter="url(#941d959675)"><rect x="-37.5" width="450" fill="#000000" y="-37.499999" height="449.999989" fill-opacity="0.749"/></g></mask><clipPath id="a60d879cfd"><path d="M 0.71875 0.398438 L 13 0.398438 L 13 12.878906 L 0.71875 12.878906 Z M 0.71875 0.398438 " clip-rule="nonzero"/></clipPath><clipPath id="ca0d8a4de9"><rect x="0" width="14" y="0" height="13"/></clipPath><clipPath id="5f7c653414"><path d="M 192 32.046875 L 202 32.046875 L 202 42 L 192 42 Z M 192 32.046875 " clip-rule="nonzero"/></clipPath><mask id="2b85563e92"><g filter="url(#941d959675)"><rect x="-37.5" width="450" fill="#000000" y="-37.499999" height="449.999989" fill-opacity="0.498"/></g></mask><clipPath id="794ba4fae0"><path d="M 0 0.046875 L 9 0.046875 L 9 9 L 0 9 Z M 0 0.046875 " clip-rule="nonzero"/></clipPath><clipPath id="a60dac9569"><rect x="0" width="10" y="0" height="10"/></clipPath><mask id="6099222629"><g filter="url(#941d959675)"><rect x="-37.5" width="450" fill="#000000" y="-37.499999" height="449.999989" fill-opacity="0.749"/></g></mask><clipPath id="abe87bae11"><path d="M 0.160156 0.199219 L 11.441406 0.199219 L 11.441406 11 L 0.160156 11 Z M 0.160156 0.199219 " clip-rule="nonzero"/></clipPath><clipPath id="94c5234fd2"><rect x="0" width="12" y="0" height="12"/></clipPath><mask id="09ec9c9525"><g filter="url(#941d959675)"><rect x="-37.5" width="450" fill="#000000" y="-37.499999" height="449.999989" fill-opacity="0.498"/></g></mask><clipPath id="32c82e4c44"><path d="M 0.199219 0.078125 L 15.800781 0.078125 L 15.800781 15 L 0.199219 15 Z M 0.199219 0.078125 " clip-rule="nonzero"/></clipPath><clipPath id="1cfeb58161"><rect x="0" width="16" y="0" height="16"/></clipPath><mask id="dfe1a8f651"><g filter="url(#941d959675)"><rect x="-37.5" width="450" fill="#000000" y="-37.499999" height="449.999989" fill-opacity="0.498"/></g></mask><clipPath id="704d46d1a2"><path d="M 0 0.121094 L 9 0.121094 L 9 9.71875 L 0 9.71875 Z M 0 0.121094 " clip-rule="nonzero"/></clipPath><clipPath id="ab8a73cceb"><rect x="0" width="10" y="0" height="10"/></clipPath><mask id="6a0a52f680"><g filter="url(#941d959675)"><rect x="-37.5" width="450" fill="#000000" y="-37.499999" height="449.999989" fill-opacity="0.749"/></g></mask><clipPath id="e321301d30"><rect x="0" width="15" y="0" height="15"/></clipPath><mask id="4c0c2e980c"><g filter="url(#941d959675)"><rect x="-37.5" width="450" fill="#000000" y="-37.499999" height="449.999989" fill-opacity="0.498"/></g></mask><clipPath id="6296ac3cb2"><path d="M 1 0.28125 L 6 0.28125 L 6 6 L 1 6 Z M 1 0.28125 " clip-rule="nonzero"/></clipPath><clipPath id="b9424ef971"><rect x="0" width="7" y="0" height="7"/></clipPath><mask id="5c78b4c531"><g filter="url(#941d959675)"><rect x="-37.5" width="450" fill="#000000" y="-37.499999" height="449.999989" fill-opacity="0.498"/></g></mask><clipPath id="3301f1343c"><path d="M 0 1 L 6.71875 1 L 6.71875 7.519531 L 0 7.519531 Z M 0 1 " clip-rule="nonzero"/></clipPath><clipPath id="c9fca96a57"><rect x="0" width="7" y="0" height="8"/></clipPath><mask id="cc69901aa5"><g filter="url(#941d959675)"><rect x="-37.5" width="450" fill="#000000" y="-37.499999" height="449.999989" fill-opacity="0.749"/></g></mask><clipPath id="38949d0daa"><path d="M 1 0.160156 L 10 0.160156 L 10 9 L 1 9 Z M 1 0.160156 " clip-rule="nonzero"/></clipPath><clipPath id="0b90190229"><rect x="0" width="11" y="0" height="10"/></clipPath><mask id="2af915e1da"><g filter="url(#941d959675)"><rect x="-37.5" width="450" fill="#000000" y="-37.499999" height="449.999989" fill-opacity="0.749"/></g></mask><clipPath id="eb9176a87e"><path d="M 0 0.558594 L 6 0.558594 L 6 7 L 0 7 Z M 0 0.558594 " clip-rule="nonzero"/></clipPath><clipPath id="9e6bf2d786"><rect x="0" width="7" y="0" height="8"/></clipPath><mask id="cb669017fb"><g filter="url(#941d959675)"><rect x="-37.5" width="450" fill="#000000" y="-37.499999" height="449.999989" fill-opacity="0.498"/></g></mask><clipPath id="3d820a6711"><path d="M 0.320312 0.160156 L 9.441406 0.160156 L 9.441406 9.28125 L 0.320312 9.28125 Z M 0.320312 0.160156 " clip-rule="nonzero"/></clipPath><clipPath id="21a3d98173"><rect x="0" width="10" y="0" height="10"/></clipPath><mask id="c6aaa9178b"><g filter="url(#941d959675)"><rect x="-37.5" width="450" fill="#000000" y="-37.499999" height="449.999989" fill-opacity="0.749"/></g></mask><clipPath id="7401ff83f4"><path d="M 0.480469 0.359375 L 12.960938 0.359375 L 12.960938 12.839844 L 0.480469 12.839844 Z M 0.480469 0.359375 " clip-rule="nonzero"/></clipPath><clipPath id="75e75239fe"><rect x="0" width="13" y="0" height="13"/></clipPath><mask id="41abb34248"><g filter="url(#941d959675)"><rect x="-37.5" width="450" fill="#000000" y="-37.499999" height="449.999989" fill-opacity="0.749"/></g></mask><clipPath id="bdc0fc30e1"><path d="M 1 1 L 6.921875 1 L 6.921875 6.878906 L 1 6.878906 Z M 1 1 " clip-rule="nonzero"/></clipPath><clipPath id="687c95feec"><rect x="0" width="7" y="0" height="7"/></clipPath><mask id="d5852cbcb4"><g filter="url(#941d959675)"><rect x="-37.5" width="450" fill="#000000" y="-37.499999" height="449.999989" fill-opacity="0.498"/></g></mask><clipPath id="bee8b7a1d7"><path d="M 0.558594 0.238281 L 9.679688 0.238281 L 9.679688 9 L 0.558594 9 Z M 0.558594 0.238281 " clip-rule="nonzero"/></clipPath><clipPath id="d83a03ba4d"><rect x="0" width="10" y="0" height="10"/></clipPath><mask id="89df6a331b"><g filter="url(#941d959675)"><rect x="-37.5" width="450" fill="#000000" y="-37.499999" height="449.999989" fill-opacity="0.749"/></g></mask><clipPath id="0dbfb228cb"><path d="M 0.558594 0.078125 L 13 0.078125 L 13 12.558594 L 0.558594 12.558594 Z M 0.558594 0.078125 " clip-rule="nonzero"/></clipPath><clipPath id="8783680ff8"><rect x="0" width="14" y="0" height="13"/></clipPath><mask id="3c3a14076e"><g filter="url(#941d959675)"><rect x="-37.5" width="450" fill="#000000" y="-37.499999" height="449.999989" fill-opacity="0.749"/></g></mask><clipPath id="cc20d62ab4"><path d="M 0.839844 0.238281 L 6.839844 0.238281 L 6.839844 6.960938 L 0.839844 6.960938 Z M 0.839844 0.238281 " clip-rule="nonzero"/></clipPath><clipPath id="3ba6272780"><rect x="0" width="7" y="0" height="7"/></clipPath><clipPath id="de8b0a1ad3"><path d="M 64 233 L 141 233 L 141 301 L 64 301 Z M 64 233 " clip-rule="nonzero"/></clipPath><clipPath id="47afdb98b2"><path d="M 44.472656 256.96875 L 134.1875 215.113281 L 174.460938 301.429688 L 84.746094 343.289062 Z M 44.472656 256.96875 " clip-rule="nonzero"/></clipPath><clipPath id="3e1e5eb7b1"><path d="M 44.472656 256.96875 L 134.1875 215.113281 L 174.460938 301.429688 L 84.746094 343.289062 Z M 44.472656 256.96875 " clip-rule="nonzero"/></clipPath><clipPath id="ab9e1212cd"><path d="M 69 274 L 76 274 L 76 311 L 69 311 Z M 69 274 " clip-rule="nonzero"/></clipPath><clipPath id="474cc99f6a"><path d="M 44.472656 256.96875 L 134.1875 215.113281 L 174.460938 301.429688 L 84.746094 343.289062 Z M 44.472656 256.96875 " clip-rule="nonzero"/></clipPath><clipPath id="b9ad3401f4"><path d="M 44.472656 256.96875 L 134.1875 215.113281 L 174.460938 301.429688 L 84.746094 343.289062 Z M 44.472656 256.96875 " clip-rule="nonzero"/></clipPath><clipPath id="5138f02117"><path d="M 84 253 L 107 253 L 107 308 L 84 308 Z M 84 253 " clip-rule="nonzero"/></clipPath><clipPath id="b07fbd0d6f"><path d="M 44.472656 256.96875 L 134.1875 215.113281 L 174.460938 301.429688 L 84.746094 343.289062 Z M 44.472656 256.96875 " clip-rule="nonzero"/></clipPath><clipPath id="5718a7c6d9"><path d="M 44.472656 256.96875 L 134.1875 215.113281 L 174.460938 301.429688 L 84.746094 343.289062 Z M 44.472656 256.96875 " clip-rule="nonzero"/></clipPath><clipPath id="f3f52a5fd0"><path d="M 92 285 L 101 285 L 101 309 L 92 309 Z M 92 285 " clip-rule="nonzero"/></clipPath><clipPath id="3352308df0"><path d="M 44.472656 256.96875 L 134.1875 215.113281 L 174.460938 301.429688 L 84.746094 343.289062 Z M 44.472656 256.96875 " clip-rule="nonzero"/></clipPath><clipPath id="10461a8410"><path d="M 44.472656 256.96875 L 134.1875 215.113281 L 174.460938 301.429688 L 84.746094 343.289062 Z M 44.472656 256.96875 " clip-rule="nonzero"/></clipPath><clipPath id="07ab5ebdeb"><path d="M 108 247 L 124 247 L 124 281 L 108 281 Z M 108 247 " clip-rule="nonzero"/></clipPath><clipPath id="440aa17952"><path d="M 44.472656 256.96875 L 134.1875 215.113281 L 174.460938 301.429688 L 84.746094 343.289062 Z M 44.472656 256.96875 " clip-rule="nonzero"/></clipPath><clipPath id="20c9c55b27"><path d="M 44.472656 256.96875 L 134.1875 215.113281 L 174.460938 301.429688 L 84.746094 343.289062 Z M 44.472656 256.96875 " clip-rule="nonzero"/></clipPath><clipPath id="ef78116377"><path d="M 114 266 L 120 266 L 120 277 L 114 277 Z M 114 266 " clip-rule="nonzero"/></clipPath><clipPath id="64f28bcff3"><path d="M 44.472656 256.96875 L 134.1875 215.113281 L 174.460938 301.429688 L 84.746094 343.289062 Z M 44.472656 256.96875 " clip-rule="nonzero"/></clipPath><clipPath id="8c013295c2"><path d="M 44.472656 256.96875 L 134.1875 215.113281 L 174.460938 301.429688 L 84.746094 343.289062 Z M 44.472656 256.96875 " clip-rule="nonzero"/></clipPath><clipPath id="c4a84b35fe"><path d="M 107 239 L 137 239 L 137 320 L 107 320 Z M 107 239 " clip-rule="nonzero"/></clipPath><clipPath id="a63aaa4ca1"><path d="M 44.472656 256.96875 L 134.1875 215.113281 L 174.460938 301.429688 L 84.746094 343.289062 Z M 44.472656 256.96875 " clip-rule="nonzero"/></clipPath><clipPath id="db2c89010c"><path d="M 44.472656 256.96875 L 134.1875 215.113281 L 174.460938 301.429688 L 84.746094 343.289062 Z M 44.472656 256.96875 " clip-rule="nonzero"/></clipPath><clipPath id="acc12b489f"><path d="M 121 291 L 130 291 L 130 313 L 121 313 Z M 121 291 " clip-rule="nonzero"/></clipPath><clipPath id="45ba997f12"><path d="M 44.472656 256.96875 L 134.1875 215.113281 L 174.460938 301.429688 L 84.746094 343.289062 Z M 44.472656 256.96875 " clip-rule="nonzero"/></clipPath><clipPath id="afd25fe227"><path d="M 44.472656 256.96875 L 134.1875 215.113281 L 174.460938 301.429688 L 84.746094 343.289062 Z M 44.472656 256.96875 " clip-rule="nonzero"/></clipPath><clipPath id="0b55c4300d"><path d="M 131 237 L 157 237 L 157 310 L 131 310 Z M 131 237 " clip-rule="nonzero"/></clipPath><clipPath id="806e18935f"><path d="M 44.472656 256.96875 L 134.1875 215.113281 L 174.460938 301.429688 L 84.746094 343.289062 Z M 44.472656 256.96875 " clip-rule="nonzero"/></clipPath><clipPath id="744f2a8b37"><path d="M 44.472656 256.96875 L 134.1875 215.113281 L 174.460938 301.429688 L 84.746094 343.289062 Z M 44.472656 256.96875 " clip-rule="nonzero"/></clipPath><clipPath id="17a1ea6d96"><path d="M 152 286 L 175 286 L 175 302 L 152 302 Z M 152 286 " clip-rule="nonzero"/></clipPath><clipPath id="7e68c98f07"><path d="M 44.472656 256.96875 L 134.1875 215.113281 L 174.460938 301.429688 L 84.746094 343.289062 Z M 44.472656 256.96875 " clip-rule="nonzero"/></clipPath><clipPath id="fa042e50c2"><path d="M 44.472656 256.96875 L 134.1875 215.113281 L 174.460938 301.429688 L 84.746094 343.289062 Z M 44.472656 256.96875 " clip-rule="nonzero"/></clipPath><clipPath id="4a2d616548"><path d="M 132 270 L 151 270 L 151 300 L 132 300 Z M 132 270 " clip-rule="nonzero"/></clipPath><clipPath id="c1e7bd39b3"><path d="M 44.472656 256.96875 L 134.1875 215.113281 L 174.460938 301.429688 L 84.746094 343.289062 Z M 44.472656 256.96875 " clip-rule="nonzero"/></clipPath><clipPath id="6b263469db"><path d="M 44.472656 256.96875 L 134.1875 215.113281 L 174.460938 301.429688 L 84.746094 343.289062 Z M 44.472656 256.96875 " clip-rule="nonzero"/></clipPath><clipPath id="b7be212bbe"><path d="M 176.152344 115.117188 L 182.804688 115.117188 L 182.804688 121.769531 L 176.152344 121.769531 Z M 176.152344 115.117188 " clip-rule="nonzero"/></clipPath><clipPath id="0877ded805"><path d="M 179.476562 115.117188 C 177.640625 115.117188 176.152344 116.605469 176.152344 118.441406 C 176.152344 120.277344 177.640625 121.769531 179.476562 121.769531 C 181.3125 121.769531 182.804688 120.277344 182.804688 118.441406 C 182.804688 116.605469 181.3125 115.117188 179.476562 115.117188 " clip-rule="nonzero"/></clipPath><clipPath id="832ade15be"><path d="M 181.492188 59.640625 L 190.453125 59.640625 L 190.453125 68.601562 L 181.492188 68.601562 Z M 181.492188 59.640625 " clip-rule="nonzero"/></clipPath><clipPath id="691494914c"><path d="M 185.972656 59.640625 C 183.5 59.640625 181.492188 61.648438 181.492188 64.121094 C 181.492188 66.59375 183.5 68.601562 185.972656 68.601562 C 188.445312 68.601562 190.453125 66.59375 190.453125 64.121094 C 190.453125 61.648438 188.445312 59.640625 185.972656 59.640625 " clip-rule="nonzero"/></clipPath><clipPath id="3537ce86de"><path d="M 197.652344 75.800781 L 206.609375 75.800781 L 206.609375 84.757812 L 197.652344 84.757812 Z M 197.652344 75.800781 " clip-rule="nonzero"/></clipPath><clipPath id="a592f0c0d3"><path d="M 202.132812 75.800781 C 199.660156 75.800781 197.652344 77.808594 197.652344 80.28125 C 197.652344 82.753906 199.660156 84.757812 202.132812 84.757812 C 204.605469 84.757812 206.609375 82.753906 206.609375 80.28125 C 206.609375 77.808594 204.605469 75.800781 202.132812 75.800781 " clip-rule="nonzero"/></clipPath><clipPath id="44e3601aec"><path d="M 232.847656 55.164062 L 241.804688 55.164062 L 241.804688 64.121094 L 232.847656 64.121094 Z M 232.847656 55.164062 " clip-rule="nonzero"/></clipPath><clipPath id="d59c4a36d3"><path d="M 237.328125 55.164062 C 234.851562 55.164062 232.847656 57.167969 232.847656 59.640625 C 232.847656 62.117188 234.851562 64.121094 237.328125 64.121094 C 239.800781 64.121094 241.804688 62.117188 241.804688 59.640625 C 241.804688 57.167969 239.800781 55.164062 237.328125 55.164062 " clip-rule="nonzero"/></clipPath><clipPath id="af39f5a27e"><path d="M 218.246094 103.945312 L 227.207031 103.945312 L 227.207031 112.90625 L 218.246094 112.90625 Z M 218.246094 103.945312 " clip-rule="nonzero"/></clipPath><clipPath id="8eeb21babe"><path d="M 222.726562 103.945312 C 220.253906 103.945312 218.246094 105.953125 218.246094 108.425781 C 218.246094 110.898438 220.253906 112.90625 222.726562 112.90625 C 225.199219 112.90625 227.207031 110.898438 227.207031 108.425781 C 227.207031 105.953125 225.199219 103.945312 222.726562 103.945312 " clip-rule="nonzero"/></clipPath></defs><g clip-path="url(#b9444a840d)"><g clip-path="url(#645acaf6c3)"><path fill="#ffffff" d="M 4.898438 6.429688 L 367.042969 6.429688 L 367.042969 368.570312 L 4.898438 368.570312 Z M 4.898438 6.429688 " fill-opacity="1" fill-rule="nonzero"/></g></g><g clip-path="url(#31e2521c45)"><path fill="#b1d137" d="M 132.820312 233.796875 C 136.6875 220.136719 142.5 190.46875 138.636719 176.8125 C 136.175781 167.355469 136.527344 160.703125 139.335938 151.597656 C 140.742188 146.695312 144.253906 142.144531 145.308594 137.242188 C 146.363281 131.988281 144.957031 128.484375 147.066406 123.234375 C 149.523438 117.628906 150.578125 112.027344 148.117188 105.375 C 147.066406 102.921875 146.011719 99.421875 144.253906 96.96875 C 141.796875 93.46875 138.636719 92.417969 136.878906 88.214844 C 138.636719 93.117188 141.09375 97.667969 146.363281 98.71875 C 147.765625 93.46875 151.4375 71.308594 151.085938 76.210938 C 150.382812 79.710938 150.578125 89.265625 150.226562 93.117188 C 149.875 95.917969 148.117188 99.070312 148.46875 101.871094 C 148.820312 105.023438 150.929688 107.824219 151.628906 111.328125 C 151.980469 114.480469 151.277344 117.980469 152.683594 120.433594 C 153.035156 116.578125 156.546875 113.078125 159.007812 109.925781 C 163.921875 104.671875 164.625 103.972656 164.625 97.667969 C 164.976562 92.066406 166.734375 93.46875 169.191406 88.914062 C 170.597656 85.761719 169.191406 81.210938 169.542969 78.058594 C 170.597656 70.355469 172.355469 60.898438 177.972656 55.648438 C 184.296875 50.042969 195.535156 45.839844 196.589844 36.035156 C 198.347656 47.59375 181.292969 51.347656 176.726562 60.101562 C 174.269531 65.003906 170.597656 72.457031 169.894531 77.707031 C 169.542969 82.261719 172.003906 92.066406 167.789062 94.519531 C 172.003906 90.316406 177.625 85.0625 179.378906 79.460938 C 181.839844 71.40625 182.539062 71.753906 190.972656 70.355469 C 205.019531 67.902344 212.398438 53.894531 227.148438 53.894531 C 221.179688 55.296875 214.503906 60.199219 209.585938 63.699219 C 204.320312 67.203125 198.699219 68.953125 192.726562 70.355469 C 197.996094 71.054688 202.210938 76.308594 207.480469 76.308594 C 209.9375 66.503906 221.527344 65.101562 230.308594 64.402344 C 232.066406 64.402344 235.386719 62.203125 236.789062 61.152344 C 238.898438 60.101562 241.199219 58.796875 243.304688 57.398438 C 248.574219 53.894531 255.25 52.496094 261.570312 53.546875 C 257.355469 53.894531 252.085938 55.996094 248.222656 57.046875 C 242.605469 58.796875 239.792969 63.351562 234.527344 65.800781 C 226.097656 69.652344 214.152344 64.75 208.183594 75.257812 C 212.75 73.507812 227.851562 72.804688 231.011719 76.65625 C 225.394531 80.859375 213.449219 73.15625 207.832031 77.359375 C 210.289062 80.160156 209.585938 85.761719 211.34375 89.613281 C 213.449219 93.46875 214.855469 98.371094 217.316406 101.171875 C 220.828125 105.023438 224.691406 106.773438 226.796875 112.378906 C 228.203125 116.230469 227.851562 120.082031 229.257812 123.933594 C 224.144531 105.816406 221.410156 108.761719 215.4375 100.707031 C 212.277344 96.851562 209.585938 91.367188 208.183594 86.113281 C 207.128906 82.261719 209.585938 78.410156 207.128906 75.257812 C 201.507812 68.953125 188.863281 71.753906 183.59375 75.957031 C 179.378906 79.109375 177.976562 81.558594 175.867188 86.113281 C 174.109375 89.613281 170.246094 94.515625 169.546875 98.019531 C 169.546875 99.421875 169.195312 99.769531 169.195312 101.171875 C 174.460938 96.96875 187.109375 96.96875 192.726562 100.820312 C 185 101.519531 178.679688 97.320312 172.003906 102.222656 C 163.925781 108.175781 160.414062 115.179688 155.496094 123.582031 C 151.632812 130.238281 148.46875 134.789062 147.417969 143.894531 C 146.363281 151.949219 144.253906 160.703125 146.714844 168.757812 C 147.417969 172.257812 149.171875 175.410156 150.226562 178.914062 C 146.917969 167.914062 160.21875 144.847656 169.703125 148.347656 C 161.199219 150.882812 155.539062 160.695312 154.597656 164.808594 C 150.71875 181.796875 154.089844 177.289062 155.503906 169.824219 C 156.980469 162.042969 155 184.84375 155.847656 192.648438 C 156.242188 196.28125 156.632812 199.695312 155.144531 203.09375 C 153.664062 206.472656 151.136719 209.507812 149.4375 212.792969 C 147.628906 216.289062 153.757812 219.335938 151.789062 222.585938 C 148.730469 227.640625 168.515625 227.636719 167.59375 233.792969 " fill-opacity="1" fill-rule="nonzero"/></g><g mask="url(#be7980cdba)"><g transform="matrix(1, 0, 0, 1, 219, 109)"><g clip-path="url(#420232353f)"><path fill="#0b8d9c" d="M 15.578125 8.34375 C 15.578125 8.816406 15.53125 9.28125 15.4375 9.742188 C 15.347656 10.207031 15.210938 10.65625 15.03125 11.089844 C 14.847656 11.527344 14.625 11.941406 14.363281 12.332031 C 14.101562 12.722656 13.804688 13.085938 13.46875 13.417969 C 13.132812 13.753906 12.769531 14.050781 12.378906 14.3125 C 11.984375 14.574219 11.570312 14.796875 11.132812 14.976562 C 10.695312 15.15625 10.246094 15.292969 9.78125 15.382812 C 9.320312 15.476562 8.851562 15.523438 8.378906 15.523438 C 7.90625 15.523438 7.4375 15.476562 6.972656 15.382812 C 6.507812 15.292969 6.058594 15.15625 5.621094 14.976562 C 5.183594 14.796875 4.769531 14.574219 4.378906 14.3125 C 3.984375 14.050781 3.621094 13.753906 3.285156 13.417969 C 2.953125 13.085938 2.652344 12.722656 2.390625 12.332031 C 2.128906 11.941406 1.90625 11.527344 1.726562 11.089844 C 1.542969 10.65625 1.40625 10.207031 1.316406 9.742188 C 1.222656 9.28125 1.175781 8.816406 1.175781 8.34375 C 1.175781 7.871094 1.222656 7.40625 1.316406 6.941406 C 1.40625 6.480469 1.542969 6.03125 1.726562 5.597656 C 1.90625 5.160156 2.128906 4.746094 2.390625 4.355469 C 2.652344 3.964844 2.953125 3.601562 3.285156 3.265625 C 3.621094 2.933594 3.984375 2.636719 4.378906 2.375 C 4.769531 2.113281 5.183594 1.890625 5.621094 1.710938 C 6.058594 1.53125 6.507812 1.394531 6.972656 1.304688 C 7.4375 1.210938 7.90625 1.164062 8.378906 1.164062 C 8.851562 1.164062 9.320312 1.210938 9.78125 1.304688 C 10.246094 1.394531 10.695312 1.53125 11.132812 1.710938 C 11.570312 1.890625 11.984375 2.113281 12.378906 2.375 C 12.769531 2.636719 13.132812 2.933594 13.46875 3.265625 C 13.804688 3.601562 14.101562 3.964844 14.363281 4.355469 C 14.625 4.746094 14.847656 5.160156 15.03125 5.597656 C 15.210938 6.03125 15.347656 6.480469 15.4375 6.941406 C 15.53125 7.40625 15.578125 7.871094 15.578125 8.34375 Z M 15.578125 8.34375 " fill-opacity="1" fill-rule="nonzero"/></g></g></g><g mask="url(#b8a1e492ed)"><g transform="matrix(1, 0, 0, 1, 220, 72)"><g clip-path="url(#d4d60d1954)"><g clip-path="url(#9b49dd0343)"><path fill="#0b8d9c" d="M 18.683594 9.519531 C 18.683594 10.09375 18.628906 10.664062 18.515625 11.230469 C 18.402344 11.796875 18.234375 12.347656 18.015625 12.878906 C 17.792969 13.410156 17.519531 13.917969 17.199219 14.398438 C 16.878906 14.875 16.511719 15.320312 16.105469 15.726562 C 15.695312 16.136719 15.25 16.5 14.769531 16.820312 C 14.289062 17.140625 13.78125 17.410156 13.246094 17.632812 C 12.710938 17.851562 12.160156 18.019531 11.59375 18.132812 C 11.027344 18.246094 10.453125 18.300781 9.875 18.300781 C 9.296875 18.300781 8.722656 18.246094 8.15625 18.132812 C 7.589844 18.019531 7.039062 17.851562 6.503906 17.632812 C 5.96875 17.410156 5.460938 17.140625 4.980469 16.820312 C 4.5 16.5 4.054688 16.136719 3.648438 15.726562 C 3.238281 15.320312 2.871094 14.875 2.550781 14.398438 C 2.230469 13.917969 1.957031 13.410156 1.738281 12.878906 C 1.515625 12.347656 1.347656 11.796875 1.234375 11.230469 C 1.125 10.664062 1.066406 10.09375 1.066406 9.519531 C 1.066406 8.941406 1.125 8.371094 1.234375 7.804688 C 1.347656 7.238281 1.515625 6.691406 1.738281 6.15625 C 1.957031 5.625 2.230469 5.117188 2.550781 4.640625 C 2.871094 4.160156 3.238281 3.714844 3.648438 3.308594 C 4.054688 2.902344 4.5 2.535156 4.980469 2.214844 C 5.460938 1.894531 5.96875 1.625 6.503906 1.40625 C 7.039062 1.183594 7.589844 1.015625 8.15625 0.90625 C 8.722656 0.792969 9.296875 0.734375 9.875 0.734375 C 10.453125 0.734375 11.027344 0.792969 11.59375 0.90625 C 12.160156 1.015625 12.710938 1.183594 13.246094 1.40625 C 13.78125 1.625 14.289062 1.894531 14.769531 2.214844 C 15.25 2.535156 15.695312 2.902344 16.105469 3.308594 C 16.511719 3.714844 16.878906 4.160156 17.199219 4.640625 C 17.519531 5.117188 17.792969 5.625 18.015625 6.15625 C 18.234375 6.691406 18.402344 7.238281 18.515625 7.804688 C 18.628906 8.371094 18.683594 8.941406 18.683594 9.519531 Z M 18.683594 9.519531 " fill-opacity="1" fill-rule="nonzero"/></g></g></g></g><g mask="url(#9f8794236c)"><g transform="matrix(1, 0, 0, 1, 164, 51)"><g clip-path="url(#e66a0ab33a)"><g clip-path="url(#432e14fa06)"><path fill="#0b8d9c" d="M 18.429688 9.675781 C 18.429688 10.25 18.371094 10.824219 18.257812 11.386719 C 18.144531 11.953125 17.980469 12.503906 17.757812 13.035156 C 17.535156 13.570312 17.265625 14.074219 16.945312 14.554688 C 16.621094 15.035156 16.257812 15.476562 15.847656 15.886719 C 15.4375 16.292969 14.996094 16.65625 14.511719 16.976562 C 14.03125 17.296875 13.523438 17.566406 12.992188 17.789062 C 12.457031 18.007812 11.90625 18.175781 11.339844 18.289062 C 10.769531 18.402344 10.199219 18.457031 9.621094 18.457031 C 9.042969 18.457031 8.46875 18.402344 7.902344 18.289062 C 7.332031 18.175781 6.78125 18.007812 6.25 17.789062 C 5.714844 17.566406 5.207031 17.296875 4.726562 16.976562 C 4.246094 16.65625 3.800781 16.292969 3.390625 15.886719 C 2.980469 15.476562 2.617188 15.035156 2.296875 14.554688 C 1.972656 14.074219 1.703125 13.570312 1.480469 13.035156 C 1.261719 12.503906 1.09375 11.953125 0.980469 11.386719 C 0.867188 10.824219 0.8125 10.25 0.8125 9.675781 C 0.8125 9.097656 0.867188 8.527344 0.980469 7.960938 C 1.09375 7.394531 1.261719 6.847656 1.480469 6.3125 C 1.703125 5.78125 1.972656 5.273438 2.296875 4.796875 C 2.617188 4.316406 2.980469 3.871094 3.390625 3.464844 C 3.800781 3.058594 4.246094 2.691406 4.726562 2.371094 C 5.207031 2.050781 5.714844 1.78125 6.25 1.5625 C 6.78125 1.339844 7.332031 1.175781 7.902344 1.0625 C 8.46875 0.949219 9.042969 0.894531 9.621094 0.894531 C 10.199219 0.894531 10.769531 0.949219 11.339844 1.0625 C 11.90625 1.175781 12.457031 1.339844 12.992188 1.5625 C 13.523438 1.78125 14.03125 2.050781 14.511719 2.371094 C 14.996094 2.691406 15.4375 3.058594 15.847656 3.464844 C 16.257812 3.871094 16.621094 4.316406 16.945312 4.796875 C 17.265625 5.273438 17.535156 5.78125 17.757812 6.3125 C 17.980469 6.847656 18.144531 7.394531 18.257812 7.960938 C 18.371094 8.527344 18.429688 9.097656 18.429688 9.675781 Z M 18.429688 9.675781 " fill-opacity="1" fill-rule="nonzero"/></g></g></g></g><g mask="url(#856ff3aa92)"><g transform="matrix(1, 0, 0, 1, 183, 93)"><g clip-path="url(#f0f35586bc)"><g clip-path="url(#2dca69c713)"><path fill="#0b8d9c" d="M 25.78125 13.226562 C 25.78125 14.03125 25.699219 14.832031 25.542969 15.621094 C 25.386719 16.410156 25.152344 17.175781 24.84375 17.921875 C 24.535156 18.664062 24.15625 19.371094 23.707031 20.042969 C 23.257812 20.710938 22.746094 21.332031 22.175781 21.902344 C 21.605469 22.472656 20.984375 22.980469 20.3125 23.425781 C 19.640625 23.875 18.929688 24.253906 18.183594 24.5625 C 17.4375 24.867188 16.667969 25.101562 15.875 25.257812 C 15.082031 25.414062 14.285156 25.496094 13.476562 25.496094 C 12.667969 25.496094 11.867188 25.414062 11.074219 25.257812 C 10.28125 25.101562 9.511719 24.867188 8.765625 24.5625 C 8.019531 24.253906 7.3125 23.875 6.640625 23.425781 C 5.96875 22.980469 5.347656 22.472656 4.777344 21.902344 C 4.203125 21.332031 3.695312 20.710938 3.246094 20.042969 C 2.796875 19.371094 2.417969 18.664062 2.109375 17.921875 C 1.800781 17.175781 1.566406 16.410156 1.40625 15.621094 C 1.25 14.832031 1.171875 14.03125 1.171875 13.226562 C 1.171875 12.421875 1.25 11.625 1.40625 10.835938 C 1.566406 10.042969 1.800781 9.277344 2.109375 8.53125 C 2.417969 7.789062 2.796875 7.082031 3.246094 6.410156 C 3.695312 5.742188 4.203125 5.121094 4.777344 4.554688 C 5.347656 3.984375 5.96875 3.476562 6.640625 3.027344 C 7.3125 2.578125 8.019531 2.203125 8.765625 1.894531 C 9.511719 1.585938 10.28125 1.351562 11.074219 1.195312 C 11.867188 1.039062 12.667969 0.960938 13.476562 0.960938 C 14.285156 0.960938 15.082031 1.039062 15.875 1.195312 C 16.667969 1.351562 17.4375 1.585938 18.183594 1.894531 C 18.929688 2.203125 19.640625 2.578125 20.3125 3.027344 C 20.984375 3.476562 21.605469 3.984375 22.175781 4.554688 C 22.746094 5.121094 23.257812 5.742188 23.707031 6.410156 C 24.15625 7.082031 24.535156 7.789062 24.84375 8.53125 C 25.152344 9.277344 25.386719 10.042969 25.542969 10.835938 C 25.699219 11.625 25.78125 12.421875 25.78125 13.226562 Z M 25.78125 13.226562 " fill-opacity="1" fill-rule="nonzero"/></g></g></g></g><g mask="url(#0a1524e0c7)"><g transform="matrix(1, 0, 0, 1, 163, 144)"><g clip-path="url(#212f93e8c1)"><g clip-path="url(#55ce8d126b)"><path fill="#0b8d9c" d="M 15.722656 7.464844 C 15.722656 7.925781 15.679688 8.386719 15.585938 8.84375 C 15.496094 9.296875 15.363281 9.738281 15.183594 10.167969 C 15.007812 10.597656 14.789062 11.003906 14.53125 11.390625 C 14.269531 11.773438 13.976562 12.132812 13.648438 12.460938 C 13.320312 12.789062 12.960938 13.082031 12.574219 13.335938 C 12.1875 13.59375 11.777344 13.8125 11.347656 13.992188 C 10.917969 14.167969 10.476562 14.300781 10.019531 14.394531 C 9.5625 14.484375 9.101562 14.527344 8.636719 14.527344 C 8.171875 14.527344 7.710938 14.484375 7.253906 14.394531 C 6.800781 14.300781 6.355469 14.167969 5.925781 13.992188 C 5.496094 13.8125 5.085938 13.59375 4.699219 13.335938 C 4.3125 13.082031 3.957031 12.789062 3.628906 12.460938 C 3.296875 12.132812 3.003906 11.773438 2.746094 11.390625 C 2.488281 11.003906 2.269531 10.597656 2.089844 10.167969 C 1.914062 9.738281 1.777344 9.296875 1.6875 8.84375 C 1.597656 8.386719 1.550781 7.925781 1.550781 7.464844 C 1.550781 7 1.597656 6.539062 1.6875 6.085938 C 1.777344 5.628906 1.914062 5.1875 2.089844 4.761719 C 2.269531 4.332031 2.488281 3.925781 2.746094 3.539062 C 3.003906 3.152344 3.296875 2.796875 3.628906 2.46875 C 3.957031 2.140625 4.3125 1.847656 4.699219 1.589844 C 5.085938 1.332031 5.496094 1.113281 5.925781 0.9375 C 6.355469 0.757812 6.800781 0.625 7.253906 0.535156 C 7.710938 0.445312 8.171875 0.398438 8.636719 0.398438 C 9.101562 0.398438 9.5625 0.445312 10.019531 0.535156 C 10.476562 0.625 10.917969 0.757812 11.347656 0.9375 C 11.777344 1.113281 12.1875 1.332031 12.574219 1.589844 C 12.960938 1.847656 13.320312 2.140625 13.648438 2.46875 C 13.976562 2.796875 14.269531 3.152344 14.53125 3.539062 C 14.789062 3.925781 15.007812 4.332031 15.183594 4.761719 C 15.363281 5.1875 15.496094 5.628906 15.585938 6.085938 C 15.679688 6.539062 15.722656 7 15.722656 7.464844 Z M 15.722656 7.464844 " fill-opacity="1" fill-rule="nonzero"/></g></g></g></g><g mask="url(#17a65bd6f7)"><g transform="matrix(1, 0, 0, 1, 217, 46)"><g clip-path="url(#cfcabd68fd)"><g clip-path="url(#ad00a35949)"><path fill="#0b8d9c" d="M 13.144531 6.605469 C 13.144531 7 13.105469 7.390625 13.03125 7.78125 C 12.953125 8.167969 12.835938 8.542969 12.683594 8.910156 C 12.535156 9.277344 12.347656 9.625 12.125 9.953125 C 11.90625 10.28125 11.65625 10.585938 11.375 10.867188 C 11.09375 11.144531 10.789062 11.394531 10.460938 11.613281 C 10.128906 11.835938 9.78125 12.019531 9.414062 12.171875 C 9.046875 12.324219 8.667969 12.4375 8.28125 12.515625 C 7.890625 12.589844 7.5 12.628906 7.101562 12.628906 C 6.703125 12.628906 6.3125 12.589844 5.921875 12.515625 C 5.53125 12.4375 5.15625 12.324219 4.789062 12.171875 C 4.421875 12.019531 4.074219 11.835938 3.742188 11.613281 C 3.414062 11.394531 3.109375 11.144531 2.828125 10.867188 C 2.546875 10.585938 2.296875 10.28125 2.074219 9.953125 C 1.855469 9.625 1.667969 9.277344 1.515625 8.910156 C 1.367188 8.542969 1.25 8.167969 1.171875 7.78125 C 1.097656 7.390625 1.058594 7 1.058594 6.605469 C 1.058594 6.207031 1.097656 5.816406 1.171875 5.429688 C 1.25 5.039062 1.367188 4.664062 1.515625 4.296875 C 1.667969 3.933594 1.855469 3.585938 2.074219 3.257812 C 2.296875 2.925781 2.546875 2.625 2.828125 2.34375 C 3.109375 2.0625 3.414062 1.8125 3.742188 1.59375 C 4.074219 1.375 4.421875 1.1875 4.789062 1.039062 C 5.15625 0.886719 5.53125 0.769531 5.921875 0.695312 C 6.3125 0.617188 6.703125 0.578125 7.101562 0.578125 C 7.5 0.578125 7.890625 0.617188 8.28125 0.695312 C 8.667969 0.769531 9.046875 0.886719 9.414062 1.039062 C 9.78125 1.1875 10.128906 1.375 10.460938 1.59375 C 10.789062 1.8125 11.09375 2.0625 11.375 2.34375 C 11.65625 2.625 11.90625 2.925781 12.125 3.257812 C 12.347656 3.585938 12.535156 3.933594 12.683594 4.296875 C 12.835938 4.664062 12.953125 5.039062 13.03125 5.429688 C 13.105469 5.816406 13.144531 6.207031 13.144531 6.605469 Z M 13.144531 6.605469 " fill-opacity="1" fill-rule="nonzero"/></g></g></g></g><g mask="url(#6a58673898)"><g transform="matrix(1, 0, 0, 1, 144, 73)"><g clip-path="url(#638d342e1e)"><g clip-path="url(#10e794a299)"><path fill="#0b8d9c" d="M 10.644531 6.261719 C 10.644531 6.597656 10.609375 6.933594 10.542969 7.265625 C 10.480469 7.59375 10.378906 7.917969 10.25 8.230469 C 10.121094 8.539062 9.960938 8.835938 9.773438 9.117188 C 9.585938 9.398438 9.371094 9.660156 9.132812 9.898438 C 8.894531 10.136719 8.632812 10.347656 8.351562 10.535156 C 8.070312 10.722656 7.773438 10.882812 7.460938 11.011719 C 7.144531 11.140625 6.824219 11.238281 6.492188 11.304688 C 6.160156 11.371094 5.824219 11.402344 5.484375 11.402344 C 5.144531 11.402344 4.8125 11.371094 4.476562 11.304688 C 4.144531 11.238281 3.824219 11.140625 3.511719 11.011719 C 3.199219 10.882812 2.898438 10.722656 2.617188 10.535156 C 2.335938 10.347656 2.078125 10.136719 1.835938 9.898438 C 1.597656 9.660156 1.382812 9.398438 1.195312 9.117188 C 1.007812 8.835938 0.847656 8.539062 0.71875 8.230469 C 0.589844 7.917969 0.492188 7.59375 0.425781 7.265625 C 0.359375 6.933594 0.324219 6.597656 0.324219 6.261719 C 0.324219 5.921875 0.359375 5.589844 0.425781 5.257812 C 0.492188 4.925781 0.589844 4.605469 0.71875 4.292969 C 0.847656 3.980469 1.007812 3.683594 1.195312 3.402344 C 1.382812 3.121094 1.597656 2.863281 1.835938 2.625 C 2.078125 2.382812 2.335938 2.171875 2.617188 1.984375 C 2.898438 1.796875 3.199219 1.636719 3.511719 1.507812 C 3.824219 1.378906 4.144531 1.28125 4.476562 1.214844 C 4.8125 1.148438 5.144531 1.117188 5.484375 1.117188 C 5.824219 1.117188 6.160156 1.148438 6.492188 1.214844 C 6.824219 1.28125 7.144531 1.378906 7.460938 1.507812 C 7.773438 1.636719 8.070312 1.796875 8.351562 1.984375 C 8.632812 2.171875 8.894531 2.382812 9.132812 2.625 C 9.371094 2.863281 9.585938 3.121094 9.773438 3.402344 C 9.960938 3.683594 10.121094 3.980469 10.25 4.292969 C 10.378906 4.605469 10.480469 4.925781 10.542969 5.257812 C 10.609375 5.589844 10.644531 5.921875 10.644531 6.261719 Z M 10.644531 6.261719 " fill-opacity="1" fill-rule="nonzero"/></g></g></g></g><g clip-path="url(#1f5e60ba66)"><g mask="url(#75d4b2a935)"><g transform="matrix(1, 0, 0, 1, 129, 85)"><g clip-path="url(#d6455110a6)"><g clip-path="url(#4206572e93)"><path fill="#0b8d9c" d="M 10.75 6.457031 C 10.75 6.796875 10.714844 7.128906 10.648438 7.460938 C 10.582031 7.792969 10.484375 8.113281 10.355469 8.425781 C 10.226562 8.738281 10.066406 9.035156 9.878906 9.316406 C 9.691406 9.597656 9.476562 9.855469 9.238281 10.09375 C 8.996094 10.332031 8.738281 10.546875 8.457031 10.734375 C 8.171875 10.921875 7.875 11.082031 7.5625 11.210938 C 7.25 11.339844 6.925781 11.4375 6.59375 11.503906 C 6.261719 11.570312 5.925781 11.601562 5.589844 11.601562 C 5.25 11.601562 4.914062 11.570312 4.582031 11.503906 C 4.25 11.4375 3.925781 11.339844 3.613281 11.210938 C 3.300781 11.082031 3.003906 10.921875 2.722656 10.734375 C 2.441406 10.546875 2.179688 10.332031 1.941406 10.09375 C 1.699219 9.855469 1.488281 9.597656 1.296875 9.316406 C 1.109375 9.035156 0.953125 8.738281 0.820312 8.425781 C 0.691406 8.113281 0.59375 7.792969 0.527344 7.460938 C 0.460938 7.128906 0.429688 6.796875 0.429688 6.457031 C 0.429688 6.121094 0.460938 5.785156 0.527344 5.453125 C 0.59375 5.121094 0.691406 4.800781 0.820312 4.488281 C 0.953125 4.175781 1.109375 3.878906 1.296875 3.601562 C 1.488281 3.320312 1.699219 3.058594 1.941406 2.820312 C 2.179688 2.582031 2.441406 2.367188 2.722656 2.179688 C 3.003906 1.992188 3.300781 1.835938 3.613281 1.707031 C 3.925781 1.574219 4.25 1.476562 4.582031 1.414062 C 4.914062 1.347656 5.25 1.3125 5.589844 1.3125 C 5.925781 1.3125 6.261719 1.347656 6.59375 1.414062 C 6.925781 1.476562 7.25 1.574219 7.5625 1.707031 C 7.875 1.835938 8.171875 1.992188 8.457031 2.179688 C 8.738281 2.367188 8.996094 2.582031 9.238281 2.820312 C 9.476562 3.058594 9.691406 3.320312 9.878906 3.601562 C 10.066406 3.878906 10.226562 4.175781 10.355469 4.488281 C 10.484375 4.800781 10.582031 5.121094 10.648438 5.453125 C 10.714844 5.785156 10.75 6.121094 10.75 6.457031 Z M 10.75 6.457031 " fill-opacity="1" fill-rule="nonzero"/></g></g></g></g></g><g clip-path="url(#e774168a1e)"><g mask="url(#62f5fe1363)"><g transform="matrix(1, 0, 0, 1, 249, 50)"><g clip-path="url(#e185dcbc64)"><g clip-path="url(#888234b24a)"><path fill="#0b8d9c" d="M 17.121094 8.273438 C 17.121094 8.792969 17.070312 9.304688 16.96875 9.816406 C 16.867188 10.324219 16.71875 10.820312 16.519531 11.300781 C 16.320312 11.777344 16.074219 12.234375 15.785156 12.667969 C 15.496094 13.097656 15.167969 13.496094 14.796875 13.863281 C 14.429688 14.230469 14.027344 14.558594 13.597656 14.847656 C 13.164062 15.136719 12.707031 15.378906 12.222656 15.578125 C 11.742188 15.777344 11.246094 15.929688 10.734375 16.03125 C 10.226562 16.128906 9.710938 16.179688 9.1875 16.179688 C 8.667969 16.179688 8.152344 16.128906 7.640625 16.03125 C 7.128906 15.929688 6.632812 15.777344 6.152344 15.578125 C 5.671875 15.378906 5.214844 15.136719 4.78125 14.847656 C 4.347656 14.558594 3.949219 14.230469 3.578125 13.863281 C 3.210938 13.496094 2.882812 13.097656 2.59375 12.667969 C 2.304688 12.234375 2.058594 11.777344 1.859375 11.300781 C 1.660156 10.820312 1.511719 10.324219 1.410156 9.816406 C 1.304688 9.304688 1.253906 8.792969 1.253906 8.273438 C 1.253906 7.753906 1.304688 7.238281 1.410156 6.730469 C 1.511719 6.21875 1.660156 5.726562 1.859375 5.246094 C 2.058594 4.765625 2.304688 4.308594 2.59375 3.878906 C 2.882812 3.445312 3.210938 3.046875 3.578125 2.679688 C 3.949219 2.3125 4.347656 1.984375 4.78125 1.695312 C 5.214844 1.40625 5.671875 1.164062 6.152344 0.964844 C 6.632812 0.765625 7.128906 0.617188 7.640625 0.515625 C 8.152344 0.414062 8.667969 0.363281 9.1875 0.363281 C 9.710938 0.363281 10.226562 0.414062 10.734375 0.515625 C 11.246094 0.617188 11.742188 0.765625 12.222656 0.964844 C 12.707031 1.164062 13.164062 1.40625 13.597656 1.695312 C 14.027344 1.984375 14.429688 2.3125 14.796875 2.679688 C 15.167969 3.046875 15.496094 3.445312 15.785156 3.878906 C 16.074219 4.308594 16.320312 4.765625 16.519531 5.246094 C 16.71875 5.726562 16.867188 6.21875 16.96875 6.730469 C 17.070312 7.238281 17.121094 7.753906 17.121094 8.273438 Z M 17.121094 8.273438 " fill-opacity="1" fill-rule="nonzero"/></g></g></g></g></g><g mask="url(#c4d035e66a)"><g transform="matrix(1, 0, 0, 1, 240, 52)"><g clip-path="url(#0838f3b627)"><g clip-path="url(#336fb53012)"><path fill="#0b8d9c" d="M 9.238281 4.667969 C 9.238281 4.941406 9.210938 5.210938 9.15625 5.480469 C 9.105469 5.746094 9.027344 6.007812 8.921875 6.257812 C 8.816406 6.511719 8.6875 6.75 8.535156 6.976562 C 8.382812 7.203125 8.210938 7.414062 8.015625 7.605469 C 7.824219 7.800781 7.613281 7.972656 7.386719 8.125 C 7.160156 8.273438 6.917969 8.402344 6.664062 8.507812 C 6.414062 8.613281 6.152344 8.691406 5.882812 8.746094 C 5.613281 8.796875 5.34375 8.824219 5.070312 8.824219 C 4.796875 8.824219 4.527344 8.796875 4.257812 8.746094 C 3.988281 8.691406 3.726562 8.613281 3.476562 8.507812 C 3.222656 8.402344 2.984375 8.273438 2.753906 8.125 C 2.527344 7.972656 2.316406 7.800781 2.125 7.605469 C 1.929688 7.414062 1.757812 7.203125 1.605469 6.976562 C 1.453125 6.75 1.324219 6.511719 1.21875 6.257812 C 1.117188 6.007812 1.035156 5.746094 0.984375 5.480469 C 0.929688 5.210938 0.902344 4.941406 0.902344 4.667969 C 0.902344 4.394531 0.929688 4.125 0.984375 3.859375 C 1.035156 3.589844 1.117188 3.332031 1.21875 3.078125 C 1.324219 2.828125 1.453125 2.585938 1.605469 2.359375 C 1.757812 2.132812 1.929688 1.921875 2.125 1.730469 C 2.316406 1.539062 2.527344 1.367188 2.753906 1.214844 C 2.984375 1.0625 3.222656 0.933594 3.476562 0.828125 C 3.726562 0.726562 3.988281 0.648438 4.257812 0.59375 C 4.527344 0.539062 4.796875 0.515625 5.070312 0.515625 C 5.34375 0.515625 5.613281 0.539062 5.882812 0.59375 C 6.152344 0.648438 6.414062 0.726562 6.664062 0.828125 C 6.917969 0.933594 7.160156 1.0625 7.386719 1.214844 C 7.613281 1.367188 7.824219 1.539062 8.015625 1.730469 C 8.210938 1.921875 8.382812 2.132812 8.535156 2.359375 C 8.6875 2.585938 8.816406 2.828125 8.921875 3.078125 C 9.027344 3.332031 9.105469 3.589844 9.15625 3.859375 C 9.210938 4.125 9.238281 4.394531 9.238281 4.667969 Z M 9.238281 4.667969 " fill-opacity="1" fill-rule="nonzero"/></g></g></g></g><g mask="url(#898b152eff)"><g transform="matrix(1, 0, 0, 1, 240, 62)"><g clip-path="url(#ca0d8a4de9)"><g clip-path="url(#a60d879cfd)"><path fill="#0b8d9c" d="M 10.914062 10.816406 C 8.511719 13.039062 4.757812 12.902344 2.527344 10.511719 C 0.300781 8.117188 0.4375 4.375 2.835938 2.152344 C 5.234375 -0.0703125 8.988281 0.0664062 11.21875 2.457031 C 13.449219 4.851562 13.3125 8.59375 10.914062 10.816406 Z M 10.914062 10.816406 " fill-opacity="1" fill-rule="nonzero"/></g></g></g></g><g clip-path="url(#5f7c653414)"><g mask="url(#2b85563e92)"><g transform="matrix(1, 0, 0, 1, 192, 32)"><g clip-path="url(#a60dac9569)"><g clip-path="url(#794ba4fae0)"><path fill="#0b8d9c" d="M 8.550781 4.199219 C 8.550781 4.472656 8.523438 4.742188 8.472656 5.011719 C 8.417969 5.277344 8.339844 5.539062 8.234375 5.789062 C 8.128906 6.042969 8 6.28125 7.847656 6.507812 C 7.699219 6.734375 7.523438 6.945312 7.332031 7.136719 C 7.136719 7.332031 6.925781 7.503906 6.699219 7.65625 C 6.472656 7.808594 6.230469 7.933594 5.980469 8.039062 C 5.726562 8.144531 5.464844 8.222656 5.199219 8.277344 C 4.929688 8.328125 4.65625 8.355469 4.382812 8.355469 C 4.109375 8.355469 3.839844 8.328125 3.570312 8.277344 C 3.304688 8.222656 3.042969 8.144531 2.789062 8.039062 C 2.535156 7.933594 2.296875 7.808594 2.070312 7.65625 C 1.839844 7.503906 1.628906 7.332031 1.4375 7.136719 C 1.242188 6.945312 1.070312 6.734375 0.917969 6.507812 C 0.765625 6.28125 0.636719 6.042969 0.535156 5.789062 C 0.429688 5.539062 0.351562 5.277344 0.296875 5.011719 C 0.242188 4.742188 0.214844 4.472656 0.214844 4.199219 C 0.214844 3.925781 0.242188 3.65625 0.296875 3.390625 C 0.351562 3.121094 0.429688 2.863281 0.535156 2.609375 C 0.636719 2.359375 0.765625 2.117188 0.917969 1.890625 C 1.070312 1.664062 1.242188 1.457031 1.4375 1.261719 C 1.628906 1.070312 1.839844 0.898438 2.070312 0.746094 C 2.296875 0.59375 2.535156 0.464844 2.789062 0.363281 C 3.042969 0.257812 3.304688 0.179688 3.570312 0.125 C 3.839844 0.0703125 4.109375 0.046875 4.382812 0.046875 C 4.65625 0.046875 4.929688 0.0703125 5.199219 0.125 C 5.464844 0.179688 5.726562 0.257812 5.980469 0.363281 C 6.230469 0.464844 6.472656 0.59375 6.699219 0.746094 C 6.925781 0.898438 7.136719 1.070312 7.332031 1.261719 C 7.523438 1.457031 7.699219 1.664062 7.847656 1.890625 C 8 2.117188 8.128906 2.359375 8.234375 2.609375 C 8.339844 2.863281 8.417969 3.121094 8.472656 3.390625 C 8.523438 3.65625 8.550781 3.925781 8.550781 4.199219 Z M 8.550781 4.199219 " fill-opacity="1" fill-rule="nonzero"/></g></g></g></g></g><g mask="url(#6099222629)"><g transform="matrix(1, 0, 0, 1, 182, 37)"><g clip-path="url(#94c5234fd2)"><g clip-path="url(#abe87bae11)"><path fill="#0b8d9c" d="M 9.589844 9.441406 C 7.496094 11.445312 4.171875 11.378906 2.160156 9.292969 C 0.152344 7.207031 0.214844 3.890625 2.308594 1.886719 C 4.402344 -0.117188 7.726562 -0.0507812 9.738281 2.035156 C 11.75 4.121094 11.683594 7.4375 9.589844 9.441406 Z M 9.589844 9.441406 " fill-opacity="1" fill-rule="nonzero"/></g></g></g></g><g mask="url(#09ec9c9525)"><g transform="matrix(1, 0, 0, 1, 193, 40)"><g clip-path="url(#1cfeb58161)"><g clip-path="url(#32c82e4c44)"><path fill="#0b8d9c" d="M 12.828125 12.84375 C 9.90625 15.636719 5.269531 15.546875 2.460938 12.636719 C -0.339844 9.726562 -0.25 5.101562 2.667969 2.304688 C 5.585938 -0.492188 10.226562 -0.402344 13.03125 2.507812 C 15.835938 5.421875 15.746094 10.042969 12.828125 12.84375 Z M 12.828125 12.84375 " fill-opacity="1" fill-rule="nonzero"/></g></g></g></g><g mask="url(#dfe1a8f651)"><g transform="matrix(1, 0, 0, 1, 174, 99)"><g clip-path="url(#ab8a73cceb)"><g clip-path="url(#704d46d1a2)"><path fill="#0b8d9c" d="M 7.535156 7.949219 C 5.875 9.539062 3.238281 9.484375 1.640625 7.832031 C 0.046875 6.175781 0.101562 3.546875 1.757812 1.957031 C 3.417969 0.367188 6.054688 0.417969 7.652344 2.074219 C 9.246094 3.726562 9.195312 6.355469 7.535156 7.949219 Z M 7.535156 7.949219 " fill-opacity="1" fill-rule="nonzero"/></g></g></g></g><g mask="url(#6a0a52f680)"><g transform="matrix(1, 0, 0, 1, 177, 84)"><g clip-path="url(#e321301d30)"><path fill="#0b8d9c" d="M 11.53125 11.898438 C 9.058594 14.269531 5.125 14.191406 2.742188 11.722656 C 0.367188 9.257812 0.441406 5.335938 2.917969 2.964844 C 5.394531 0.589844 9.328125 0.667969 11.707031 3.136719 C 14.082031 5.605469 14.007812 9.527344 11.53125 11.898438 Z M 11.53125 11.898438 " fill-opacity="1" fill-rule="nonzero"/></g></g></g><g mask="url(#4c0c2e980c)"><g transform="matrix(1, 0, 0, 1, 151, 83)"><g clip-path="url(#b9424ef971)"><g clip-path="url(#6296ac3cb2)"><path fill="#0b8d9c" d="M 5.902344 3.359375 C 5.902344 3.679688 5.839844 3.988281 5.71875 4.285156 C 5.59375 4.582031 5.421875 4.84375 5.191406 5.070312 C 4.964844 5.296875 4.703125 5.46875 4.40625 5.59375 C 4.109375 5.714844 3.800781 5.777344 3.476562 5.777344 C 3.15625 5.777344 2.847656 5.714844 2.550781 5.59375 C 2.253906 5.46875 1.992188 5.296875 1.765625 5.070312 C 1.535156 4.84375 1.363281 4.582031 1.238281 4.285156 C 1.117188 3.988281 1.054688 3.679688 1.054688 3.359375 C 1.054688 3.039062 1.117188 2.730469 1.238281 2.433594 C 1.363281 2.136719 1.535156 1.875 1.765625 1.648438 C 1.992188 1.421875 2.253906 1.25 2.550781 1.125 C 2.847656 1.003906 3.15625 0.941406 3.476562 0.941406 C 3.800781 0.941406 4.109375 1.003906 4.40625 1.125 C 4.703125 1.25 4.964844 1.421875 5.191406 1.648438 C 5.421875 1.875 5.59375 2.136719 5.71875 2.433594 C 5.839844 2.730469 5.902344 3.039062 5.902344 3.359375 Z M 5.902344 3.359375 " fill-opacity="1" fill-rule="nonzero"/></g></g></g></g><g mask="url(#5c78b4c531)"><g transform="matrix(1, 0, 0, 1, 144, 82)"><g clip-path="url(#c9fca96a57)"><g clip-path="url(#3301f1343c)"><path fill="#0b8d9c" d="M 6.421875 4.371094 C 6.421875 4.753906 6.347656 5.117188 6.203125 5.46875 C 6.058594 5.820312 5.847656 6.132812 5.578125 6.398438 C 5.308594 6.667969 5 6.875 4.644531 7.023438 C 4.292969 7.167969 3.925781 7.238281 3.546875 7.238281 C 3.164062 7.238281 2.796875 7.167969 2.445312 7.023438 C 2.09375 6.875 1.78125 6.667969 1.511719 6.398438 C 1.242188 6.132812 1.035156 5.820312 0.886719 5.46875 C 0.742188 5.117188 0.667969 4.753906 0.667969 4.371094 C 0.667969 3.992188 0.742188 3.625 0.886719 3.273438 C 1.035156 2.921875 1.242188 2.613281 1.511719 2.34375 C 1.78125 2.074219 2.09375 1.867188 2.445312 1.722656 C 2.796875 1.578125 3.164062 1.503906 3.546875 1.503906 C 3.925781 1.503906 4.292969 1.578125 4.644531 1.722656 C 5 1.867188 5.308594 2.074219 5.578125 2.34375 C 5.847656 2.613281 6.058594 2.921875 6.203125 3.273438 C 6.347656 3.625 6.421875 3.992188 6.421875 4.371094 Z M 6.421875 4.371094 " fill-opacity="1" fill-rule="nonzero"/></g></g></g></g><g mask="url(#cc69901aa5)"><g transform="matrix(1, 0, 0, 1, 207, 50)"><g clip-path="url(#0b90190229)"><g clip-path="url(#38949d0daa)"><path fill="#0b8d9c" d="M 8.558594 7.824219 C 6.898438 9.414062 4.261719 9.363281 2.664062 7.707031 C 1.070312 6.050781 1.121094 3.421875 2.78125 1.832031 C 4.441406 0.242188 7.078125 0.292969 8.671875 1.949219 C 10.269531 3.601562 10.214844 6.234375 8.558594 7.824219 Z M 8.558594 7.824219 " fill-opacity="1" fill-rule="nonzero"/></g></g></g></g><g mask="url(#2af915e1da)"><g transform="matrix(1, 0, 0, 1, 246, 46)"><g clip-path="url(#9e6bf2d786)"><g clip-path="url(#eb9176a87e)"><path fill="#0b8d9c" d="M 5.800781 3.738281 C 5.800781 4.105469 5.726562 4.464844 5.585938 4.804688 C 5.445312 5.148438 5.242188 5.449219 4.980469 5.710938 C 4.714844 5.972656 4.414062 6.175781 4.070312 6.316406 C 3.726562 6.457031 3.371094 6.527344 3 6.527344 C 2.625 6.527344 2.269531 6.457031 1.925781 6.316406 C 1.582031 6.175781 1.28125 5.972656 1.019531 5.710938 C 0.753906 5.449219 0.550781 5.148438 0.410156 4.804688 C 0.269531 4.464844 0.195312 4.105469 0.195312 3.738281 C 0.195312 3.367188 0.269531 3.011719 0.410156 2.667969 C 0.550781 2.324219 0.753906 2.023438 1.019531 1.761719 C 1.28125 1.5 1.582031 1.296875 1.925781 1.15625 C 2.269531 1.015625 2.625 0.945312 3 0.945312 C 3.371094 0.945312 3.726562 1.015625 4.070312 1.15625 C 4.414062 1.296875 4.714844 1.5 4.980469 1.761719 C 5.242188 2.023438 5.445312 2.324219 5.585938 2.667969 C 5.726562 3.011719 5.800781 3.367188 5.800781 3.738281 Z M 5.800781 3.738281 " fill-opacity="1" fill-rule="nonzero"/></g></g></g></g><g mask="url(#cb669017fb)"><g transform="matrix(1, 0, 0, 1, 160, 134)"><g clip-path="url(#21a3d98173)"><g clip-path="url(#3d820a6711)"><path fill="#0b8d9c" d="M 9.148438 4.898438 C 9.148438 5.171875 9.125 5.441406 9.070312 5.710938 C 9.015625 5.976562 8.9375 6.238281 8.832031 6.488281 C 8.726562 6.742188 8.601562 6.980469 8.449219 7.207031 C 8.296875 7.433594 8.121094 7.644531 7.929688 7.835938 C 7.734375 8.03125 7.523438 8.203125 7.296875 8.351562 C 7.070312 8.503906 6.828125 8.632812 6.578125 8.738281 C 6.324219 8.839844 6.0625 8.921875 5.796875 8.972656 C 5.527344 9.027344 5.257812 9.054688 4.980469 9.054688 C 4.707031 9.054688 4.4375 9.027344 4.167969 8.972656 C 3.902344 8.921875 3.640625 8.839844 3.386719 8.738281 C 3.132812 8.632812 2.894531 8.503906 2.667969 8.351562 C 2.4375 8.203125 2.230469 8.03125 2.035156 7.835938 C 1.84375 7.644531 1.667969 7.433594 1.515625 7.207031 C 1.363281 6.980469 1.238281 6.742188 1.132812 6.488281 C 1.027344 6.238281 0.949219 5.976562 0.894531 5.710938 C 0.839844 5.441406 0.816406 5.171875 0.816406 4.898438 C 0.816406 4.625 0.839844 4.355469 0.894531 4.089844 C 0.949219 3.820312 1.027344 3.558594 1.132812 3.308594 C 1.238281 3.054688 1.363281 2.816406 1.515625 2.589844 C 1.667969 2.363281 1.84375 2.152344 2.035156 1.960938 C 2.230469 1.765625 2.4375 1.59375 2.667969 1.445312 C 2.894531 1.292969 3.132812 1.164062 3.386719 1.058594 C 3.640625 0.957031 3.902344 0.875 4.167969 0.824219 C 4.4375 0.769531 4.707031 0.742188 4.980469 0.742188 C 5.257812 0.742188 5.527344 0.769531 5.796875 0.824219 C 6.0625 0.875 6.324219 0.957031 6.578125 1.058594 C 6.828125 1.164062 7.070312 1.292969 7.296875 1.445312 C 7.523438 1.59375 7.734375 1.765625 7.929688 1.960938 C 8.121094 2.152344 8.296875 2.363281 8.449219 2.589844 C 8.601562 2.816406 8.726562 3.054688 8.832031 3.308594 C 8.9375 3.558594 9.015625 3.820312 9.070312 4.089844 C 9.125 4.355469 9.148438 4.625 9.148438 4.898438 Z M 9.148438 4.898438 " fill-opacity="1" fill-rule="nonzero"/></g></g></g></g><g mask="url(#c6aaa9178b)"><g transform="matrix(1, 0, 0, 1, 150, 141)"><g clip-path="url(#75e75239fe)"><g clip-path="url(#7401ff83f4)"><path fill="#0b8d9c" d="M 5.550781 12.261719 C 2.328125 11.683594 0.179688 8.613281 0.757812 5.398438 C 1.332031 2.183594 4.414062 0.0429688 7.640625 0.617188 C 10.867188 1.191406 13.011719 4.265625 12.433594 7.476562 C 11.859375 10.695312 8.777344 12.835938 5.550781 12.261719 Z M 5.550781 12.261719 " fill-opacity="1" fill-rule="nonzero"/></g></g></g></g><g mask="url(#41abb34248)"><g transform="matrix(1, 0, 0, 1, 169, 134)"><g clip-path="url(#687c95feec)"><g clip-path="url(#bdc0fc30e1)"><path fill="#0b8d9c" d="M 3.453125 6.617188 C 1.925781 6.371094 0.890625 4.9375 1.136719 3.414062 C 1.382812 1.890625 2.820312 0.859375 4.347656 1.105469 C 5.875 1.347656 6.910156 2.78125 6.664062 4.304688 C 6.417969 5.828125 4.980469 6.863281 3.453125 6.617188 Z M 3.453125 6.617188 " fill-opacity="1" fill-rule="nonzero"/></g></g></g></g><g mask="url(#d5852cbcb4)"><g transform="matrix(1, 0, 0, 1, 154, 54)"><g clip-path="url(#d83a03ba4d)"><g clip-path="url(#bee8b7a1d7)"><path fill="#0b8d9c" d="M 9.011719 4.421875 C 9.011719 4.695312 8.984375 4.964844 8.929688 5.234375 C 8.878906 5.5 8.796875 5.761719 8.695312 6.011719 C 8.589844 6.265625 8.460938 6.503906 8.308594 6.730469 C 8.15625 6.957031 7.984375 7.167969 7.789062 7.363281 C 7.597656 7.554688 7.386719 7.726562 7.160156 7.878906 C 6.929688 8.03125 6.691406 8.15625 6.4375 8.261719 C 6.183594 8.367188 5.925781 8.445312 5.65625 8.5 C 5.386719 8.550781 5.117188 8.578125 4.84375 8.578125 C 4.570312 8.578125 4.296875 8.550781 4.03125 8.5 C 3.761719 8.445312 3.5 8.367188 3.25 8.261719 C 2.996094 8.15625 2.753906 8.03125 2.527344 7.878906 C 2.300781 7.726562 2.089844 7.554688 1.894531 7.363281 C 1.703125 7.167969 1.53125 6.957031 1.378906 6.730469 C 1.226562 6.503906 1.097656 6.265625 0.992188 6.011719 C 0.886719 5.761719 0.808594 5.5 0.753906 5.234375 C 0.703125 4.964844 0.675781 4.695312 0.675781 4.421875 C 0.675781 4.152344 0.703125 3.878906 0.753906 3.613281 C 0.808594 3.34375 0.886719 3.085938 0.992188 2.832031 C 1.097656 2.582031 1.226562 2.339844 1.378906 2.113281 C 1.53125 1.886719 1.703125 1.679688 1.894531 1.484375 C 2.089844 1.292969 2.300781 1.121094 2.527344 0.96875 C 2.753906 0.816406 2.996094 0.6875 3.25 0.585938 C 3.5 0.480469 3.761719 0.402344 4.03125 0.347656 C 4.296875 0.292969 4.570312 0.269531 4.84375 0.269531 C 5.117188 0.269531 5.386719 0.292969 5.65625 0.347656 C 5.925781 0.402344 6.183594 0.480469 6.4375 0.585938 C 6.691406 0.6875 6.929688 0.816406 7.160156 0.96875 C 7.386719 1.121094 7.597656 1.292969 7.789062 1.484375 C 7.984375 1.679688 8.15625 1.886719 8.308594 2.113281 C 8.460938 2.339844 8.589844 2.582031 8.695312 2.832031 C 8.796875 3.085938 8.878906 3.34375 8.929688 3.613281 C 8.984375 3.878906 9.011719 4.152344 9.011719 4.421875 Z M 9.011719 4.421875 " fill-opacity="1" fill-rule="nonzero"/></g></g></g></g><g mask="url(#89df6a331b)"><g transform="matrix(1, 0, 0, 1, 154, 64)"><g clip-path="url(#8783680ff8)"><g clip-path="url(#0dbfb228cb)"><path fill="#0b8d9c" d="M 10.683594 10.570312 C 8.285156 12.792969 4.53125 12.65625 2.300781 10.265625 C 0.0703125 7.871094 0.207031 4.132812 2.605469 1.90625 C 5.007812 -0.316406 8.761719 -0.179688 10.988281 2.210938 C 13.222656 4.605469 13.085938 8.347656 10.683594 10.570312 Z M 10.683594 10.570312 " fill-opacity="1" fill-rule="nonzero"/></g></g></g></g><g mask="url(#3c3a14076e)"><g transform="matrix(1, 0, 0, 1, 159, 48)"><g clip-path="url(#3ba6272780)"><g clip-path="url(#cc20d62ab4)"><path fill="#0b8d9c" d="M 5.710938 5.503906 C 4.597656 6.570312 2.824219 6.539062 1.75 5.425781 C 0.679688 4.3125 0.714844 2.546875 1.828125 1.476562 C 2.945312 0.410156 4.71875 0.445312 5.789062 1.554688 C 6.863281 2.667969 6.828125 4.433594 5.710938 5.503906 Z M 5.710938 5.503906 " fill-opacity="1" fill-rule="nonzero"/></g></g></g></g><g clip-path="url(#de8b0a1ad3)"><g clip-path="url(#47afdb98b2)"><g clip-path="url(#3e1e5eb7b1)"><path fill="#0b8d9c" d="M 140.011719 237.511719 C 132.070312 238.5 129.566406 248.535156 122.304688 252.199219 C 112.882812 257.214844 103.15625 257.429688 93.621094 262.273438 C 78.355469 269.484375 70.105469 285.59375 64.902344 300.757812 C 79.144531 240.796875 114.082031 264.753906 130.476562 238.570312 C 133.289062 235.847656 135.621094 234.230469 139.890625 233.902344 L 140.011719 237.511719 " fill-opacity="1" fill-rule="nonzero"/></g></g></g><g clip-path="url(#ab9e1212cd)"><g clip-path="url(#474cc99f6a)"><g clip-path="url(#b9ad3401f4)"><path fill="#0b8d9c" d="M 75.46875 277.914062 C 75.503906 277.902344 75.59375 277.835938 75.535156 277.84375 C 75.410156 277.96875 75.078125 278.246094 74.855469 279.257812 C 73.796875 284.707031 75.21875 290.722656 74.183594 296.71875 C 73.371094 301.5 70.675781 305.507812 69.824219 310.476562 C 70.113281 305.523438 72.574219 301.023438 72.808594 295.652344 C 73.015625 289.792969 71.167969 284.929688 71.6875 278.78125 C 71.847656 277.246094 72.699219 274.496094 75.359375 274.300781 L 75.46875 277.914062 " fill-opacity="1" fill-rule="nonzero"/></g></g></g><g clip-path="url(#5138f02117)"><g clip-path="url(#b07fbd0d6f)"><g clip-path="url(#5718a7c6d9)"><path fill="#0b8d9c" d="M 106.792969 257.398438 C 105.324219 257.460938 103.695312 258.777344 102.601562 260.542969 C 96.496094 275.402344 96.421875 294.167969 84.578125 307.058594 C 97.917969 280.542969 91.984375 271.246094 99.40625 258.367188 C 100.882812 256.191406 103.320312 253.878906 106.761719 253.785156 L 106.792969 257.398438 " fill-opacity="1" fill-rule="nonzero"/></g></g></g><g clip-path="url(#f3f52a5fd0)"><g clip-path="url(#3352308df0)"><g clip-path="url(#10461a8410)"><path fill="#0b8d9c" d="M 95.746094 286.261719 C 94.347656 293.292969 97.992188 301.574219 100.277344 308.652344 C 97.050781 301.550781 92.253906 293.976562 92.976562 285.480469 L 95.746094 286.261719 " fill-opacity="1" fill-rule="nonzero"/></g></g></g><g clip-path="url(#07ab5ebdeb)"><g clip-path="url(#440aa17952)"><g clip-path="url(#20c9c55b27)"><path fill="#0b8d9c" d="M 122.261719 251.027344 C 122.246094 251.046875 122.277344 251.070312 122.234375 251.09375 C 122.160156 251.160156 121.859375 251.222656 121.566406 251.765625 C 121.542969 251.820312 121.523438 251.882812 121.488281 251.996094 C 121.160156 253.957031 121.574219 257.914062 120.671875 260.671875 C 118.496094 267.597656 114.28125 274.5625 108.960938 280.082031 C 112.46875 272.722656 117.035156 264.433594 117.457031 255.792969 C 116.921875 252.433594 118.082031 245.839844 123.871094 247.804688 L 122.261719 251.027344 " fill-opacity="1" fill-rule="nonzero"/></g></g></g><g clip-path="url(#ef78116377)"><g clip-path="url(#64f28bcff3)"><g clip-path="url(#8c013295c2)"><path fill="#0b8d9c" d="M 118.300781 266.558594 C 118.476562 269.703125 118.910156 272.882812 119.613281 276.050781 C 117.808594 273.351562 116.199219 270.464844 114.816406 267.425781 L 118.300781 266.558594 " fill-opacity="1" fill-rule="nonzero"/></g></g></g><g clip-path="url(#c4a84b35fe)"><g clip-path="url(#a63aaa4ca1)"><g clip-path="url(#db2c89010c)"><path fill="#0b8d9c" d="M 132.792969 242.121094 C 130.996094 250.878906 135.707031 260.875 135.929688 270.234375 C 138.496094 297.082031 107.011719 298.28125 108.871094 319.0625 C 103.523438 303.902344 121.59375 295.484375 128.628906 284.523438 C 134.210938 275.300781 130.417969 264.222656 128.980469 253.949219 C 128.640625 249.046875 127.15625 244.464844 130.058594 239.765625 L 132.792969 242.121094 " fill-opacity="1" fill-rule="nonzero"/></g></g></g><g clip-path="url(#acc12b489f)"><g clip-path="url(#45ba997f12)"><g clip-path="url(#afd25fe227)"><path fill="#0b8d9c" d="M 123.128906 295.082031 C 123.453125 295.089844 123.898438 294.917969 124.121094 294.707031 C 124.355469 294.496094 124.433594 294.324219 124.480469 294.214844 C 124.5625 293.996094 124.539062 293.957031 124.539062 293.894531 C 124.492188 294.378906 124.429688 294.667969 124.375 295.699219 C 124.34375 296.109375 124.339844 296.523438 124.34375 296.9375 C 124.308594 302.007812 126.230469 307.914062 129.847656 312.320312 C 125.589844 308.558594 122.519531 303.292969 121.433594 297.1875 C 121.351562 296.726562 121.277344 296.265625 121.234375 295.800781 C 121.175781 295.382812 121.121094 294.746094 121.066406 293.667969 C 121.078125 293.386719 121.097656 293.125 121.269531 292.707031 C 121.363281 292.503906 121.5 292.234375 121.816406 291.957031 C 122.121094 291.671875 122.675781 291.457031 123.109375 291.46875 L 123.128906 295.082031 " fill-opacity="1" fill-rule="nonzero"/></g></g></g><g clip-path="url(#0b55c4300d)"><g clip-path="url(#806e18935f)"><g clip-path="url(#744f2a8b37)"><path fill="#0b8d9c" d="M 135.167969 238.886719 C 134.285156 241.652344 135.386719 245.285156 137.3125 248.304688 C 155.574219 269.949219 154.199219 287.765625 156.148438 309.5625 C 152.625 298.769531 151.878906 286.804688 148.558594 275.667969 C 145.117188 259.339844 127.492188 249.675781 131.824219 237.542969 L 135.167969 238.886719 " fill-opacity="1" fill-rule="nonzero"/></g></g></g><g clip-path="url(#17a1ea6d96)"><g clip-path="url(#7e68c98f07)"><g clip-path="url(#fa042e50c2)"><path fill="#0b8d9c" d="M 153.71875 286.941406 C 158.144531 294.800781 168.683594 294.996094 174.457031 301.421875 C 168.214844 295.523438 157.503906 296.226562 152 288.234375 L 153.71875 286.941406 " fill-opacity="1" fill-rule="nonzero"/></g></g></g><g clip-path="url(#4a2d616548)"><g clip-path="url(#c1e7bd39b3)"><g clip-path="url(#6b263469db)"><path fill="#0b8d9c" d="M 150.296875 271.582031 C 146.847656 287.183594 131.375 288.042969 132.335938 299.941406 C 130.429688 287.933594 146.699219 282.890625 146.835938 270.597656 L 150.296875 271.582031 " fill-opacity="1" fill-rule="nonzero"/></g></g></g><g clip-path="url(#b7be212bbe)"><g clip-path="url(#0877ded805)"><path fill="#0b8d9c" d="M 176.152344 115.117188 L 182.804688 115.117188 L 182.804688 121.769531 L 176.152344 121.769531 Z M 176.152344 115.117188 " fill-opacity="1" fill-rule="nonzero"/></g></g><g fill="#c93148" fill-opacity="1"><g transform="translate(118.90944, 237.447806)"><g><path d="M 52.046875 -80.71875 L 52.046875 -64.578125 L 24.265625 -64.578125 L 24.265625 -48.53125 L 50.875 -48.53125 L 50.875 -32.390625 L 24.265625 -32.390625 L 24.265625 -16.140625 L 52.046875 -16.140625 L 52.046875 0 L 5.875 0 L 5.875 -80.71875 Z M 52.046875 -80.71875 "/></g></g></g><g fill="#c93148" fill-opacity="1"><g transform="translate(175.648793, 237.447806)"><g><path d="M 48.828125 -16.640625 C 51.628906 -16.640625 54.347656 -17.0625 56.984375 -17.90625 C 59.628906 -18.75 61.570312 -19.5625 62.8125 -20.34375 L 64.671875 -21.625 L 72.5 -5.96875 C 72.238281 -5.769531 71.878906 -5.507812 71.421875 -5.1875 C 70.960938 -4.863281 69.898438 -4.257812 68.234375 -3.375 C 66.578125 -2.5 64.800781 -1.734375 62.90625 -1.078125 C 61.019531 -0.421875 58.539062 0.164062 55.46875 0.6875 C 52.40625 1.207031 49.242188 1.46875 45.984375 1.46875 C 38.484375 1.46875 31.375 -0.375 24.65625 -4.0625 C 17.9375 -7.75 12.519531 -12.820312 8.40625 -19.28125 C 4.300781 -25.738281 2.25 -32.71875 2.25 -40.21875 C 2.25 -45.882812 3.453125 -51.328125 5.859375 -56.546875 C 8.273438 -61.765625 11.488281 -66.234375 15.5 -69.953125 C 19.519531 -73.671875 24.203125 -76.640625 29.546875 -78.859375 C 34.898438 -81.078125 40.378906 -82.1875 45.984375 -82.1875 C 51.203125 -82.1875 56.007812 -81.566406 60.40625 -80.328125 C 64.8125 -79.085938 67.929688 -77.847656 69.765625 -76.609375 L 72.5 -74.75 L 64.671875 -59.09375 C 64.210938 -59.488281 63.523438 -59.960938 62.609375 -60.515625 C 61.703125 -61.066406 59.878906 -61.800781 57.140625 -62.71875 C 54.398438 -63.632812 51.628906 -64.09375 48.828125 -64.09375 C 44.390625 -64.09375 40.410156 -63.375 36.890625 -61.9375 C 33.367188 -60.5 30.578125 -58.601562 28.515625 -56.25 C 26.460938 -53.90625 24.894531 -51.378906 23.8125 -48.671875 C 22.738281 -45.960938 22.203125 -43.207031 22.203125 -40.40625 C 22.203125 -34.28125 24.5 -28.785156 29.09375 -23.921875 C 33.695312 -19.066406 40.273438 -16.640625 48.828125 -16.640625 Z M 48.828125 -16.640625 "/></g></g></g><g fill="#c93148" fill-opacity="1"><g transform="translate(249.312122, 237.447806)"><g><path d="M 5.875 -80.71875 L 35.328125 -80.71875 C 43.546875 -80.71875 50.195312 -78.597656 55.28125 -74.359375 C 60.363281 -70.117188 62.90625 -63.953125 62.90625 -55.859375 C 62.90625 -47.773438 60.328125 -41.429688 55.171875 -36.828125 C 50.023438 -32.234375 43.410156 -29.9375 35.328125 -29.9375 L 24.265625 -29.9375 L 24.265625 0 L 5.875 0 Z M 24.265625 -44.609375 L 29.453125 -44.609375 C 33.554688 -44.609375 36.929688 -45.441406 39.578125 -47.109375 C 42.222656 -48.773438 43.546875 -51.5 43.546875 -55.28125 C 43.546875 -59.125 42.222656 -61.878906 39.578125 -63.546875 C 36.929688 -65.210938 33.554688 -66.046875 29.453125 -66.046875 L 24.265625 -66.046875 Z M 24.265625 -44.609375 "/></g></g></g><g clip-path="url(#832ade15be)"><g clip-path="url(#691494914c)"><path fill="#0b8d9c" d="M 181.492188 59.640625 L 190.453125 59.640625 L 190.453125 68.601562 L 181.492188 68.601562 Z M 181.492188 59.640625 " fill-opacity="1" fill-rule="nonzero"/></g></g><g clip-path="url(#3537ce86de)"><g clip-path="url(#a592f0c0d3)"><path fill="#0b8d9c" d="M 197.652344 75.800781 L 206.609375 75.800781 L 206.609375 84.757812 L 197.652344 84.757812 Z M 197.652344 75.800781 " fill-opacity="1" fill-rule="nonzero"/></g></g><g clip-path="url(#44e3601aec)"><g clip-path="url(#d59c4a36d3)"><path fill="#0b8d9c" d="M 232.847656 55.164062 L 241.804688 55.164062 L 241.804688 64.121094 L 232.847656 64.121094 Z M 232.847656 55.164062 " fill-opacity="1" fill-rule="nonzero"/></g></g><g clip-path="url(#af39f5a27e)"><g clip-path="url(#8eeb21babe)"><path fill="#0b8d9c" d="M 218.246094 103.945312 L 227.207031 103.945312 L 227.207031 112.90625 L 218.246094 112.90625 Z M 218.246094 103.945312 " fill-opacity="1" fill-rule="nonzero"/></g></g></svg>