<svg xmlns="http://www.w3.org/2000/svg" xmlns:xlink="http://www.w3.org/1999/xlink" width="200"
  height="200"
  zoomAndPan="magnify" viewBox="0 0 375 374.999991" preserveAspectRatio="xMidYMid meet"
  version="1.0">
  <defs>
    <clipPath id="10cdcf3723">
      <path
        d="M 42.179688 41.636719 L 320.429688 41.636719 L 320.429688 319.886719 L 42.179688 319.886719 Z M 42.179688 41.636719 "
        clip-rule="nonzero" />
    </clipPath>
  </defs>
  <g clip-path="url(#10cdcf3723)">
    <path fill="#1B9DF0"
      d="M 181.304688 41.636719 C 104.457031 41.636719 42.179688 103.910156 42.179688 180.761719 C 42.179688 257.613281 104.457031 319.886719 181.304688 319.886719 C 258.15625 319.886719 320.429688 257.613281 320.429688 180.761719 C 320.308594 103.910156 258.035156 41.636719 181.304688 41.636719 Z M 262.492188 149.441406 C 262.492188 149.441406 264.902344 202.683594 224.429688 235.6875 C 163.839844 284.953125 98.433594 244.964844 98.433594 244.964844 C 98.433594 244.964844 114.332031 245.203125 128.425781 241.46875 C 142.398438 237.738281 152.515625 228.582031 152.515625 228.582031 C 152.515625 228.582031 137.21875 225.449219 129.269531 219.667969 C 121.320312 213.886719 118.1875 202.804688 118.1875 202.804688 C 118.1875 202.804688 123.488281 203.285156 126.738281 203.164062 C 130.113281 203.046875 134.085938 201.480469 134.085938 201.480469 C 134.085938 201.480469 123.125 200.15625 112.886719 188.710938 C 104.816406 179.675781 105.417969 164.621094 105.417969 164.621094 C 105.417969 164.621094 110.238281 167.511719 112.765625 168.113281 C 115.296875 168.835938 120.234375 168.835938 120.234375 168.835938 C 120.234375 168.835938 110.597656 163.175781 106.382812 148.359375 C 102.167969 133.664062 110.238281 118.726562 110.238281 118.726562 C 110.238281 118.726562 124.570312 136.074219 145.773438 147.15625 C 166.972656 158.238281 186.96875 157.875 186.96875 157.875 C 186.96875 157.875 184.074219 149.082031 189.136719 136.074219 C 194.195312 123.0625 205.636719 113.667969 223.101562 112.34375 C 240.570312 110.898438 251.773438 124.148438 251.773438 124.148438 C 251.773438 124.148438 257.191406 123.183594 263.335938 120.894531 C 269.476562 118.726562 275.621094 115.835938 275.621094 115.835938 C 275.621094 115.835938 273.453125 122.460938 269.238281 127.640625 C 265.023438 132.820312 260.324219 135.953125 260.324219 135.953125 C 260.324219 135.953125 265.863281 135.589844 271.40625 134.023438 C 276.945312 132.460938 279.957031 130.894531 279.957031 130.894531 C 273.574219 141.492188 262.492188 149.441406 262.492188 149.441406 Z M 262.492188 149.441406 "
      fill-opacity="1" fill-rule="nonzero" />
  </g>
</svg>
